<?xml version="1.0" encoding="utf-8"?>
<!-- Generator: Adobe Illustrator 16.2.1, SVG Export Plug-In . SVG Version: 6.00 Build 0)  -->
<!DOCTYPE svg PUBLIC "-//W3C//DTD SVG 1.1//EN" "http://www.w3.org/Graphics/SVG/1.1/DTD/svg11.dtd">
<svg version="1.1" id="Livetype" xmlns="http://www.w3.org/2000/svg" xmlns:xlink="http://www.w3.org/1999/xlink" x="0px" y="0px"
	 width="110px" height="40px" viewBox="0 0 110 40" enable-background="new 0 0 110 40" xml:space="preserve">
<g>
	<path fill="#A6A6A6" d="M103.371,0H6.625C6.373,0,6.119,0,5.867,0.002c-0.215,0-0.423,0.003-0.637,0.008
		C4.766,0.025,4.297,0.049,3.837,0.135C3.37,0.217,2.937,0.355,2.518,0.57C2.099,0.783,1.721,1.057,1.387,1.386
		c-0.33,0.335-0.604,0.712-0.815,1.132C0.355,2.936,0.218,3.369,0.137,3.837C0.049,4.297,0.025,4.766,0.01,5.23
		C0.005,5.444,0.003,5.652,0.002,5.865C0,6.119,0.001,6.371,0.001,6.625v26.754c0,0.248-0.001,0.506,0.001,0.756
		c0.001,0.211,0.003,0.426,0.008,0.639c0.016,0.471,0.039,0.934,0.127,1.389c0.081,0.473,0.219,0.906,0.435,1.33
		c0.212,0.408,0.485,0.799,0.815,1.121c0.334,0.334,0.712,0.613,1.131,0.824c0.419,0.217,0.853,0.344,1.319,0.438
		c0.46,0.08,0.929,0.105,1.394,0.115c0.214,0.004,0.422,0.006,0.637,0.008C6.119,40,6.373,40,6.625,40h96.746
		c0.252,0,0.506,0,0.76-0.002c0.211-0.002,0.426-0.004,0.641-0.008c0.463-0.01,0.932-0.035,1.393-0.115
		c0.461-0.094,0.895-0.221,1.32-0.438c0.42-0.211,0.797-0.49,1.127-0.824c0.328-0.322,0.607-0.713,0.818-1.121
		c0.217-0.424,0.354-0.857,0.436-1.33c0.082-0.455,0.111-0.918,0.123-1.389c0.008-0.213,0.01-0.428,0.01-0.639
		C110,33.885,110,33.627,110,33.379V6.625c0-0.254,0-0.506-0.002-0.76c0-0.213-0.002-0.421-0.01-0.635
		c-0.012-0.465-0.041-0.934-0.123-1.394c-0.082-0.468-0.219-0.901-0.436-1.319c-0.211-0.42-0.49-0.797-0.818-1.132
		c-0.33-0.329-0.707-0.603-1.127-0.815c-0.426-0.215-0.859-0.354-1.32-0.436c-0.461-0.086-0.93-0.109-1.393-0.125
		c-0.215-0.005-0.43-0.008-0.641-0.008C103.877,0,103.623,0,103.371,0L103.371,0z"/>
	<path d="M103.371,0.985l0.752,0.001c0.207,0.002,0.416,0.004,0.619,0.014c0.379,0.008,0.818,0.026,1.246,0.107
		c0.395,0.071,0.727,0.18,1.051,0.342c0.32,0.166,0.615,0.381,0.875,0.638c0.258,0.258,0.473,0.552,0.639,0.876
		c0.162,0.322,0.271,0.654,0.342,1.051c0.076,0.423,0.096,0.864,0.105,1.24c0.006,0.207,0.008,0.414,0.008,0.624
		c0.002,0.251,0.002,0.496,0.002,0.747v26.754c0,0.246,0,0.502-0.002,0.75c0,0.207-0.002,0.416-0.008,0.621
		c-0.01,0.377-0.029,0.818-0.105,1.244c-0.07,0.387-0.18,0.725-0.342,1.053c-0.166,0.318-0.381,0.613-0.639,0.875
		c-0.26,0.254-0.555,0.467-0.877,0.627c-0.322,0.174-0.654,0.277-1.047,0.35c-0.434,0.074-0.893,0.104-1.244,0.111
		c-0.205,0.004-0.412,0.006-0.623,0.008c-0.25,0.002-0.502,0.002-0.752,0.002H6.625c-0.002,0-0.004,0-0.007,0
		c-0.249,0-0.497,0-0.748-0.002c-0.203-0.002-0.411-0.004-0.616-0.008c-0.35-0.008-0.811-0.037-1.241-0.111
		c-0.396-0.072-0.728-0.176-1.051-0.35c-0.323-0.16-0.617-0.373-0.874-0.627c-0.258-0.262-0.472-0.557-0.639-0.875
		c-0.161-0.328-0.271-0.666-0.342-1.055C1.026,35.566,1.009,35.127,1,34.75c-0.01-0.207-0.012-0.416-0.014-0.621v-0.6v-0.15V6.625
		v-0.15V5.877C0.988,5.669,0.99,5.461,1,5.253c0.009-0.374,0.026-0.814,0.108-1.241c0.07-0.395,0.18-0.727,0.341-1.05
		C1.616,2.639,1.83,2.345,2.088,2.088C2.345,1.83,2.639,1.615,2.963,1.449c0.322-0.162,0.654-0.271,1.049-0.342
		C4.439,1.026,4.879,1.008,5.254,1C5.461,0.99,5.67,0.988,5.877,0.986l0.748-0.001H103.371"/>
	<g>
		<g>
			<path fill="#FFFFFF" d="M30.129,19.783c-0.029-3.223,2.639-4.791,2.761-4.863c-1.511-2.203-3.853-2.505-4.676-2.528
				c-1.968-0.206-3.874,1.177-4.877,1.177c-1.022,0-2.565-1.156-4.228-1.122c-2.14,0.033-4.143,1.272-5.24,3.196
				c-2.266,3.922-0.576,9.688,1.595,12.857c1.086,1.553,2.354,3.287,4.016,3.227c1.625-0.068,2.231-1.037,4.193-1.037
				c1.943,0,2.513,1.037,4.207,0.998c1.743-0.029,2.843-1.561,3.89-3.127c1.256-1.781,1.76-3.533,1.779-3.623
				C33.508,24.924,30.162,23.646,30.129,19.783z"/>
			<path fill="#FFFFFF" d="M26.929,10.307c0.874-1.094,1.472-2.58,1.306-4.09c-1.266,0.057-2.848,0.875-3.758,1.944
				c-0.806,0.942-1.525,2.486-1.34,3.938C24.558,12.205,26.017,11.383,26.929,10.307z"/>
		</g>
	</g>
	<g>
		<path fill="#FFFFFF" d="M48.232,13.372h-3.57V7.09h1.007v5.434h2.563V13.372z"/>
		<path fill="#FFFFFF" d="M52.827,13.372h-0.904l-0.074-0.522H51.82c-0.311,0.417-0.752,0.625-1.323,0.625
			c-0.429,0-0.773-0.137-1.035-0.41c-0.236-0.249-0.354-0.556-0.354-0.923c0-0.553,0.231-0.975,0.694-1.267s1.114-0.435,1.953-0.429
			v-0.084c0-0.597-0.313-0.895-0.939-0.895c-0.446,0-0.84,0.112-1.181,0.336L49.43,9.141c0.422-0.261,0.94-0.391,1.554-0.391
			c1.185,0,1.777,0.625,1.777,1.873v1.668C52.761,12.745,52.783,13.105,52.827,13.372z M51.783,11.815v-0.699
			c-1.112-0.019-1.668,0.286-1.668,0.913c0,0.236,0.065,0.414,0.195,0.531c0.129,0.118,0.293,0.177,0.491,0.177
			c0.222,0,0.428-0.07,0.616-0.209c0.188-0.14,0.304-0.318,0.348-0.536C51.776,11.943,51.783,11.884,51.783,11.815z"/>
		<path fill="#FFFFFF" d="M57.143,12.07c0,0.422-0.156,0.76-0.466,1.014c-0.311,0.254-0.74,0.381-1.287,0.381
			c-0.516,0-0.954-0.103-1.314-0.308l0.214-0.746c0.348,0.211,0.718,0.317,1.109,0.317c0.516,0,0.773-0.189,0.773-0.568
			c0-0.168-0.056-0.306-0.168-0.415c-0.112-0.108-0.311-0.216-0.596-0.321c-0.808-0.298-1.212-0.733-1.212-1.305
			c0-0.392,0.149-0.718,0.447-0.979c0.298-0.261,0.693-0.391,1.184-0.391c0.447,0,0.829,0.091,1.146,0.273L56.76,9.747
			c-0.292-0.174-0.6-0.261-0.922-0.261c-0.211,0-0.376,0.049-0.494,0.148s-0.177,0.227-0.177,0.381s0.062,0.282,0.187,0.381
			c0.105,0.093,0.311,0.195,0.615,0.307C56.75,11.001,57.143,11.457,57.143,12.07z"/>
		<path fill="#FFFFFF" d="M60.776,9.598h-1.108v2.199c0,0.559,0.195,0.839,0.586,0.839c0.181,0,0.33-0.016,0.448-0.046l0.028,0.764
			c-0.199,0.075-0.461,0.112-0.783,0.112c-0.398,0-0.709-0.121-0.932-0.364c-0.225-0.242-0.336-0.649-0.336-1.221V9.598h-0.662
			V8.843h0.662v-0.83l0.988-0.298v1.128h1.108V9.598z"/>
		<path fill="#FFFFFF" d="M68.53,13.372h-1.006v-2.594c0-0.8-0.305-1.2-0.914-1.2c-0.299,0-0.541,0.11-0.727,0.331
			c-0.188,0.22-0.28,0.479-0.28,0.776v2.687h-1.006v-3.234c0-0.398-0.014-0.83-0.037-1.295h0.885l0.046,0.708h0.029
			c0.117-0.22,0.291-0.402,0.521-0.547c0.273-0.169,0.578-0.254,0.914-0.254c0.422,0,0.773,0.137,1.053,0.41
			c0.348,0.335,0.521,0.835,0.521,1.5V13.372z"/>
		<path fill="#FFFFFF" d="M73.879,10.893c0,0.18-0.012,0.333-0.037,0.457h-3.02c0.013,0.447,0.158,0.789,0.438,1.025
			c0.254,0.211,0.584,0.317,0.987,0.317c0.447,0,0.854-0.072,1.222-0.214l0.158,0.699c-0.429,0.187-0.936,0.28-1.52,0.28
			c-0.702,0-1.253-0.207-1.654-0.62c-0.4-0.413-0.601-0.967-0.601-1.664c0-0.683,0.186-1.252,0.559-1.706
			c0.392-0.484,0.92-0.727,1.585-0.727c0.652,0,1.146,0.242,1.481,0.727C73.746,9.853,73.879,10.328,73.879,10.893z M72.919,10.632
			c0.007-0.298-0.059-0.556-0.195-0.773c-0.174-0.28-0.441-0.419-0.802-0.419c-0.329,0-0.597,0.137-0.801,0.41
			c-0.168,0.218-0.268,0.479-0.299,0.783H72.919z"/>
		<path fill="#FFFFFF" d="M79.22,13.372h-0.895l-0.047-0.727H78.25c-0.285,0.553-0.771,0.83-1.454,0.83c-0.546,0-1-0.214-1.36-0.643
			s-0.54-0.985-0.54-1.668c0-0.733,0.195-1.326,0.587-1.78C75.861,8.96,76.327,8.75,76.88,8.75c0.609,0,1.035,0.205,1.277,0.615
			h0.019v-2.6h1.007v5.387C79.183,12.592,79.194,13,79.22,13.372z M78.176,11.461v-0.755c0-0.13-0.01-0.236-0.028-0.317
			c-0.056-0.242-0.178-0.446-0.365-0.61c-0.187-0.165-0.411-0.247-0.674-0.247c-0.374,0-0.669,0.149-0.884,0.447
			c-0.216,0.298-0.323,0.681-0.323,1.146c0,0.447,0.104,0.811,0.31,1.09c0.218,0.298,0.511,0.447,0.879,0.447
			c0.331,0,0.596-0.124,0.796-0.373C78.079,12.061,78.176,11.785,78.176,11.461z"/>
		<path fill="#FFFFFF" d="M85.884,6.783l-0.093,0.783c-0.149-0.062-0.314-0.093-0.494-0.093c-0.528,0-0.792,0.379-0.792,1.137v0.233
			h1.016v0.755h-1.007v3.774h-1.007V9.598h-0.614V8.843h0.614V8.638c0-0.69,0.178-1.206,0.531-1.547
			c0.299-0.286,0.678-0.429,1.138-0.429C85.442,6.662,85.679,6.702,85.884,6.783z"/>
		<path fill="#FFFFFF" d="M89.006,9.728c-0.1-0.019-0.205-0.028-0.317-0.028c-0.354,0-0.627,0.133-0.82,0.4
			c-0.167,0.236-0.251,0.535-0.251,0.895v2.376H86.61l0.01-3.104c0-0.522-0.013-0.997-0.038-1.426h0.876l0.038,0.867h0.027
			c0.105-0.298,0.273-0.538,0.504-0.718c0.224-0.162,0.466-0.242,0.727-0.242c0.093,0,0.177,0.006,0.252,0.019V9.728z"/>
		<path fill="#FFFFFF" d="M93.535,13.372h-0.904l-0.074-0.522h-0.028c-0.311,0.417-0.752,0.625-1.323,0.625
			c-0.429,0-0.773-0.137-1.034-0.41c-0.236-0.249-0.354-0.556-0.354-0.923c0-0.553,0.231-0.975,0.694-1.267s1.113-0.435,1.952-0.429
			v-0.084c0-0.597-0.312-0.895-0.938-0.895c-0.447,0-0.841,0.112-1.182,0.336l-0.205-0.662c0.422-0.261,0.94-0.391,1.555-0.391
			c1.185,0,1.777,0.625,1.777,1.873v1.668C93.47,12.745,93.491,13.105,93.535,13.372z M92.491,11.815v-0.699
			c-1.112-0.019-1.668,0.286-1.668,0.913c0,0.236,0.064,0.414,0.194,0.531c0.13,0.118,0.293,0.177,0.491,0.177
			c0.223,0,0.428-0.07,0.616-0.209c0.188-0.14,0.305-0.318,0.348-0.536C92.485,11.943,92.491,11.884,92.491,11.815z"/>
	</g>
	<g>
		<path fill="#FFFFFF" d="M47.047,19.04c0,0.382-0.125,0.691-0.375,0.928c-0.25,0.237-0.573,0.355-0.968,0.355
			c-0.355,0-0.655-0.122-0.899-0.365s-0.365-0.549-0.365-0.918c0-0.368,0.125-0.671,0.375-0.908c0.25-0.237,0.559-0.355,0.928-0.355
			c0.368,0,0.678,0.118,0.928,0.355C46.922,18.368,47.047,18.671,47.047,19.04z M46.81,31.502h-2.133v-9.599h2.133V31.502z"/>
		<path fill="#FFFFFF" d="M58.285,19.988h-3.812v11.514H52.34V19.988h-3.792V18.19h9.737V19.988z"/>
		<path fill="#FFFFFF" d="M67.172,31.502h-1.876l-0.118-1.461h-0.04c-0.671,1.119-1.686,1.678-3.042,1.678
			c-0.947,0-1.705-0.296-2.271-0.889c-0.671-0.724-1.007-1.816-1.007-3.278v-5.648h2.133v5.293c0,1.844,0.632,2.765,1.896,2.765
			c0.947,0,1.605-0.461,1.975-1.382c0.092-0.237,0.138-0.507,0.138-0.81v-5.866h2.133v6.833
			C67.093,29.646,67.119,30.567,67.172,31.502z"/>
		<path fill="#FFFFFF" d="M78.391,31.502h-2.133v-5.496c0-1.695-0.646-2.542-1.936-2.542c-0.633,0-1.146,0.233-1.541,0.699
			c-0.395,0.466-0.593,1.015-0.593,1.646v5.693h-2.133v-6.854c0-0.842-0.026-1.758-0.079-2.745h1.877l0.099,1.501h0.059
			c0.25-0.467,0.619-0.854,1.106-1.158c0.579-0.36,1.225-0.54,1.936-0.54c0.896,0,1.639,0.29,2.231,0.869
			c0.737,0.711,1.106,1.771,1.106,3.18V31.502z"/>
		<path fill="#FFFFFF" d="M89.272,26.248c0,0.383-0.026,0.705-0.079,0.969h-6.399c0.026,0.947,0.336,1.672,0.929,2.172
			c0.54,0.447,1.237,0.672,2.094,0.672c0.947,0,1.81-0.151,2.587-0.455l0.336,1.482c-0.909,0.395-1.982,0.592-3.22,0.592
			c-1.487,0-2.656-0.438-3.505-1.313c-0.85-0.876-1.274-2.05-1.274-3.525c0-1.448,0.396-2.653,1.186-3.614
			c0.829-1.027,1.948-1.541,3.357-1.541c1.382,0,2.429,0.513,3.14,1.541C88.989,24.043,89.272,25.051,89.272,26.248z M87.238,25.695
			c0.013-0.632-0.126-1.178-0.415-1.639c-0.369-0.593-0.935-0.889-1.698-0.889c-0.698,0-1.265,0.289-1.698,0.869
			c-0.356,0.461-0.566,1.014-0.633,1.658H87.238z"/>
		<path fill="#FFFFFF" d="M97.509,28.744c0,0.893-0.329,1.609-0.987,2.147c-0.659,0.538-1.567,0.808-2.726,0.808
			c-1.094,0-2.021-0.217-2.785-0.651l0.454-1.58c0.737,0.448,1.521,0.671,2.351,0.671c1.093,0,1.639-0.4,1.639-1.204
			c0-0.355-0.118-0.648-0.355-0.879c-0.236-0.23-0.658-0.458-1.264-0.682c-1.712-0.632-2.567-1.554-2.567-2.765
			c0-0.83,0.316-1.521,0.948-2.074s1.468-0.829,2.508-0.829c0.948,0,1.758,0.193,2.43,0.58l-0.454,1.533
			c-0.619-0.368-1.271-0.554-1.956-0.554c-0.447,0-0.797,0.105-1.046,0.316c-0.251,0.209-0.376,0.479-0.376,0.807
			c0,0.329,0.132,0.599,0.396,0.809c0.224,0.197,0.658,0.414,1.304,0.65C96.679,26.479,97.509,27.443,97.509,28.744z"/>
	</g>
</g>
</svg>
