<?xml version="1.0" encoding="utf-8"?>
<!-- Generator: Adobe Illustrator 15.1.0, SVG Export Plug-In . SVG Version: 6.00 Build 0)  -->
<!DOCTYPE svg PUBLIC "-//W3C//DTD SVG 1.1//EN" "http://www.w3.org/Graphics/SVG/1.1/DTD/svg11.dtd">
<svg version="1.1" id="Layer_1" xmlns="http://www.w3.org/2000/svg" xmlns:xlink="http://www.w3.org/1999/xlink" x="0px" y="0px"
	 width="110px" height="40px" viewBox="0 0 110 40" enable-background="new 0 0 110 40" xml:space="preserve">
<g>
	<path fill="#A6A6A6" d="M105.27,40H4.729C2.122,40,0,37.882,0,35.277V4.726C0,2.12,2.122,0,4.729,0H105.27
		c2.604,0,4.729,2.12,4.729,4.726v30.551C109.998,37.882,107.875,40,105.27,40L105.27,40z"/>
	<path d="M109.104,35.277c0,2.117-1.713,3.83-3.834,3.83H4.729c-2.119,0-3.839-1.713-3.839-3.83V4.726
		c0-2.116,1.72-3.836,3.839-3.836H105.27c2.121,0,3.834,1.72,3.834,3.836V35.277z"/>
	<path fill="#FFFFFF" d="M30.205,19.728c-0.03-3.223,2.65-4.791,2.773-4.864c-1.518-2.204-3.871-2.505-4.696-2.529
		c-1.977-0.207-3.892,1.178-4.899,1.178c-1.026,0-2.576-1.157-4.246-1.124c-2.148,0.034-4.16,1.272-5.263,3.196
		c-2.276,3.923-0.578,9.69,1.602,12.858c1.09,1.556,2.365,3.287,4.033,3.227c1.632-0.064,2.241-1.036,4.211-1.036
		c1.951,0,2.524,1.036,4.225,0.997c1.752-0.025,2.855-1.559,3.907-3.126c1.261-1.78,1.767-3.532,1.787-3.623
		C33.599,24.867,30.238,23.592,30.205,19.728z"/>
	<path fill="#FFFFFF" d="M26.99,10.25c0.877-1.093,1.479-2.58,1.312-4.089c-1.271,0.056-2.859,0.875-3.774,1.945
		c-0.809,0.942-1.533,2.486-1.346,3.938C24.608,12.149,26.074,11.327,26.99,10.25z"/>
	
		<linearGradient id="SVGID_1_" gradientUnits="userSpaceOnUse" x1="-7.4878" y1="216.8896" x2="-7.4878" y2="252.9462" gradientTransform="matrix(1 0 0 -1 90 257)">
		<stop  offset="0" style="stop-color:#1A1A1A;stop-opacity:0.1"/>
		<stop  offset="0.1235" style="stop-color:#212121;stop-opacity:0.1506"/>
		<stop  offset="0.3085" style="stop-color:#353535;stop-opacity:0.2265"/>
		<stop  offset="0.5321" style="stop-color:#575757;stop-opacity:0.3181"/>
		<stop  offset="0.7834" style="stop-color:#858585;stop-opacity:0.4212"/>
		<stop  offset="1" style="stop-color:#B3B3B3;stop-opacity:0.51"/>
	</linearGradient>
	<path fill="url(#SVGID_1_)" d="M105.27,0H55.026L81.35,40h23.92c2.604,0,4.729-2.117,4.729-4.723V4.726
		C110,2.121,107.875,0,105.27,0z"/>
	<g>
		<path fill="#FFFFFF" d="M47.036,19.039c0,0.382-0.125,0.691-0.375,0.929c-0.25,0.236-0.572,0.354-0.968,0.354
			c-0.355,0-0.654-0.121-0.898-0.365c-0.243-0.243-0.365-0.549-0.365-0.918c0-0.368,0.125-0.671,0.375-0.908
			c0.25-0.236,0.56-0.355,0.929-0.355c0.368,0,0.678,0.119,0.928,0.355C46.911,18.368,47.036,18.67,47.036,19.039z M46.799,31.498
			h-2.132v-9.596h2.132V31.498z"/>
		<path fill="#FFFFFF" d="M58.311,19.987h-3.832v11.511h-2.133V19.987h-3.791V18.19h9.753v1.797H58.311z"/>
		<path fill="#FFFFFF" d="M67.156,31.498h-1.875l-0.119-1.461h-0.039c-0.672,1.119-1.686,1.678-3.041,1.678
			c-0.947,0-1.705-0.296-2.271-0.888c-0.67-0.726-1.006-1.816-1.006-3.278v-5.646h2.133v5.291c0,1.845,0.631,2.766,1.896,2.766
			c0.946,0,1.604-0.461,1.976-1.382c0.092-0.237,0.139-0.507,0.139-0.81v-5.865h2.133v6.832
			C67.078,29.641,67.104,30.562,67.156,31.498z"/>
		<path fill="#FFFFFF" d="M78.41,31.498h-2.133v-5.509c0-1.698-0.646-2.548-1.937-2.548c-0.631,0-1.146,0.233-1.539,0.701
			c-0.395,0.467-0.592,1.018-0.592,1.648v5.706h-2.133v-6.853c0-0.842-0.027-1.756-0.08-2.744h1.877l0.099,1.48h0.061
			c0.25-0.46,0.617-0.842,1.105-1.145c0.577-0.355,1.223-0.533,1.934-0.533c0.896,0,1.639,0.289,2.232,0.867
			c0.735,0.712,1.104,1.771,1.104,3.18L78.41,31.498L78.41,31.498z"/>
		<path fill="#FFFFFF" d="M89.27,26.246c0,0.382-0.027,0.704-0.08,0.968h-6.396c0.025,0.947,0.336,1.672,0.928,2.172
			c0.539,0.447,1.238,0.671,2.094,0.671c0.947,0,1.81-0.15,2.586-0.453l0.336,1.479c-0.907,0.396-1.981,0.593-3.219,0.593
			c-1.488,0-2.656-0.438-3.504-1.312c-0.85-0.875-1.272-2.051-1.272-3.523c0-1.447,0.395-2.652,1.184-3.613
			c0.83-1.026,1.949-1.539,3.357-1.539c1.381,0,2.428,0.513,3.139,1.539C88.986,24.041,89.27,25.048,89.27,26.246z M87.236,25.693
			c0.012-0.633-0.127-1.178-0.416-1.639c-0.367-0.594-0.934-0.89-1.697-0.89c-0.697,0-1.264,0.29-1.697,0.869
			c-0.355,0.46-0.566,1.014-0.633,1.657h4.443V25.693z"/>
		<path fill="#FFFFFF" d="M97.542,28.732c0,0.896-0.33,1.613-0.987,2.152c-0.658,0.54-1.566,0.811-2.726,0.811
			c-1.093,0-2.021-0.217-2.783-0.651l0.453-1.579c0.737,0.447,1.521,0.671,2.351,0.671c1.092,0,1.639-0.401,1.639-1.204
			c0-0.354-0.117-0.647-0.355-0.879c-0.236-0.229-0.658-0.457-1.264-0.682c-1.711-0.632-2.566-1.553-2.566-2.764
			c0-0.83,0.316-1.521,0.947-2.073c0.633-0.554,1.469-0.829,2.508-0.829c0.947,0,1.758,0.189,2.43,0.572l-0.455,1.521
			c-0.619-0.368-1.27-0.553-1.955-0.553c-0.446,0-0.797,0.104-1.045,0.315c-0.252,0.211-0.377,0.479-0.377,0.81
			s0.134,0.6,0.396,0.81c0.223,0.197,0.658,0.415,1.303,0.651C96.712,26.462,97.542,27.43,97.542,28.732z"/>
	</g>
	<g>
		<path fill="#FFFFFF" d="M48.543,8.37c-0.325-0.149-0.704-0.229-1.127-0.229c-1.303,0-2.122,0.871-2.122,2.28
			c0,1.399,0.784,2.236,2.096,2.236c0.467,0,0.854-0.07,1.171-0.221l0.167,0.758c-0.352,0.167-0.854,0.255-1.505,0.255
			c-1.813,0-2.932-1.171-2.932-2.984c0-1.866,1.25-3.117,3.09-3.117c0.599,0,1.057,0.088,1.373,0.256L48.543,8.37z"/>
		<path fill="#FFFFFF" d="M51.491,13.467c-1.25,0-2.06-0.933-2.06-2.201c0-1.32,0.827-2.263,2.13-2.263
			c1.233,0,2.061,0.89,2.061,2.192C53.622,12.535,52.767,13.467,51.491,13.467z M51.526,9.699c-0.687,0-1.127,0.644-1.127,1.541
			c0,0.881,0.449,1.523,1.118,1.523s1.118-0.687,1.118-1.541C52.635,10.351,52.195,9.699,51.526,9.699z"/>
		<path fill="#FFFFFF" d="M58.348,13.371h-0.951v-2.456c0-0.758-0.291-1.136-0.863-1.136c-0.562,0-0.95,0.483-0.95,1.047v2.545
			h-0.951v-3.055c0-0.379-0.009-0.784-0.035-1.225h0.836l0.045,0.661h0.026c0.255-0.458,0.773-0.749,1.355-0.749
			c0.897,0,1.488,0.687,1.488,1.805V13.371z"/>
		<path fill="#FFFFFF" d="M60.589,13.458c-0.483,0-0.897-0.097-1.241-0.29l0.202-0.705c0.326,0.203,0.679,0.3,1.048,0.3
			c0.484,0,0.73-0.176,0.73-0.537c0-0.317-0.186-0.493-0.723-0.695c-0.767-0.282-1.145-0.695-1.145-1.232
			c0-0.74,0.616-1.295,1.541-1.295c0.422,0,0.783,0.088,1.082,0.256l-0.202,0.678C61.611,9.77,61.32,9.69,61.012,9.69
			c-0.396,0-0.635,0.212-0.635,0.502c0,0.273,0.15,0.423,0.758,0.652c0.739,0.272,1.109,0.713,1.109,1.294
			C62.245,12.939,61.62,13.458,60.589,13.458z"/>
		<path fill="#FFFFFF" d="M64.225,13.371h-0.951v-4.28h0.951V13.371z M65.042,7.295l-1.065,1.276h-0.66l0.758-1.276H65.042z"/>
		<path fill="#FFFFFF" d="M69.275,9.091c-0.025,0.344-0.034,0.749-0.034,1.216v2.447c0,1.796-0.793,2.447-2.201,2.447
			c-0.59,0-1.074-0.114-1.437-0.334l0.222-0.731c0.36,0.221,0.766,0.326,1.215,0.326c0.836,0,1.259-0.449,1.259-1.355v-0.414h-0.018
			c-0.266,0.432-0.688,0.651-1.26,0.651c-1.029,0-1.777-0.89-1.777-2.087c0-1.312,0.818-2.254,1.893-2.254
			c0.581,0,0.995,0.229,1.25,0.678h0.018v-0.59H69.275z M68.29,10.782c0-0.572-0.388-1.047-0.978-1.047
			c-0.644,0-1.109,0.581-1.109,1.487c0,0.837,0.449,1.409,1.109,1.409c0.537,0,0.978-0.44,0.978-1.092V10.782z"/>
		<path fill="#FFFFFF" d="M73.402,13.371L73.35,12.72h-0.018c-0.3,0.502-0.748,0.748-1.355,0.748c-0.941,0-1.461-0.678-1.461-1.857
			v-2.52h0.95v2.36c0,0.818,0.281,1.232,0.845,1.232c0.484,0,0.942-0.326,0.942-0.978V9.091h0.951v3.047
			c0,0.405,0.009,0.818,0.034,1.232L73.402,13.371L73.402,13.371z"/>
		<path fill="#FFFFFF" d="M78.991,11.46h-2.853c0.018,0.81,0.555,1.268,1.348,1.268c0.422,0,0.81-0.07,1.152-0.203l0.149,0.661
			c-0.405,0.176-0.881,0.264-1.437,0.264c-1.338,0-2.129-0.845-2.129-2.157s0.81-2.298,2.023-2.298c1.092,0,1.777,0.811,1.777,2.034
			C79.025,11.196,79.018,11.345,78.991,11.46z M78.12,10.782c0-0.66-0.335-1.127-0.942-1.127c-0.546,0-0.978,0.476-1.039,1.127
			H78.12z"/>
		<path fill="#FFFFFF" d="M80.971,13.371H80.02V7.128h0.951V13.371z"/>
		<path fill="#FFFFFF" d="M84.049,13.467c-1.25,0-2.06-0.933-2.06-2.201c0-1.32,0.827-2.263,2.13-2.263
			c1.232,0,2.061,0.89,2.061,2.192C86.18,12.535,85.326,13.467,84.049,13.467z M84.084,9.699c-0.688,0-1.127,0.644-1.127,1.541
			c0,0.881,0.449,1.523,1.118,1.523s1.118-0.687,1.118-1.541C85.193,10.351,84.753,9.699,84.084,9.699z"/>
		<path fill="#FFFFFF" d="M92.859,11.46h-2.854c0.018,0.81,0.555,1.268,1.348,1.268c0.422,0,0.811-0.07,1.153-0.203l0.149,0.661
			c-0.405,0.176-0.881,0.264-1.436,0.264c-1.339,0-2.131-0.845-2.131-2.157s0.811-2.298,2.024-2.298
			c1.092,0,1.778,0.811,1.778,2.034C92.895,11.196,92.885,11.345,92.859,11.46z M91.988,10.782c0-0.66-0.336-1.127-0.942-1.127
			c-0.546,0-0.978,0.476-1.039,1.127H91.988z"/>
		<path fill="#FFFFFF" d="M97.604,13.371h-0.951v-2.456c0-0.758-0.291-1.136-0.863-1.136c-0.562,0-0.95,0.483-0.95,1.047v2.545
			h-0.95v-3.055c0-0.379-0.01-0.784-0.035-1.225h0.836l0.045,0.661h0.025c0.256-0.458,0.774-0.749,1.355-0.749
			c0.898,0,1.488,0.687,1.488,1.805V13.371z"/>
	</g>
</g>
</svg>
