<?xml version="1.0" encoding="utf-8"?>
<!-- Generator: Adobe Illustrator 15.1.0, SVG Export Plug-In . SVG Version: 6.00 Build 0)  -->
<!DOCTYPE svg PUBLIC "-//W3C//DTD SVG 1.1//EN" "http://www.w3.org/Graphics/SVG/1.1/DTD/svg11.dtd">
<svg version="1.1" id="Layer_1" xmlns="http://www.w3.org/2000/svg" xmlns:xlink="http://www.w3.org/1999/xlink" x="0px" y="0px"
	 width="110px" height="40px" viewBox="0 0 110 40" enable-background="new 0 0 110 40" xml:space="preserve">
<g>
	<path fill="#A6A6A6" d="M105.27,40H4.729C2.122,40,0,37.882,0,35.277V4.726C0,2.12,2.122,0,4.729,0H105.27
		c2.604,0,4.729,2.12,4.729,4.726v30.551C109.998,37.882,107.875,40,105.27,40L105.27,40z"/>
	<path d="M109.104,35.277c0,2.117-1.713,3.83-3.834,3.83H4.729c-2.119,0-3.839-1.713-3.839-3.83V4.726
		c0-2.116,1.72-3.836,3.839-3.836H105.27c2.121,0,3.834,1.72,3.834,3.836V35.277z"/>
	<path fill="#FFFFFF" d="M30.205,19.728c-0.03-3.223,2.65-4.791,2.773-4.864c-1.518-2.204-3.871-2.505-4.696-2.529
		c-1.977-0.207-3.892,1.178-4.899,1.178c-1.026,0-2.576-1.157-4.246-1.124c-2.148,0.034-4.16,1.272-5.263,3.196
		c-2.276,3.923-0.578,9.69,1.602,12.858c1.09,1.556,2.365,3.287,4.033,3.227c1.632-0.064,2.241-1.036,4.211-1.036
		c1.951,0,2.524,1.036,4.225,0.997c1.752-0.025,2.855-1.559,3.907-3.126c1.261-1.78,1.767-3.532,1.787-3.623
		C33.599,24.867,30.238,23.592,30.205,19.728z"/>
	<path fill="#FFFFFF" d="M26.99,10.25c0.877-1.093,1.479-2.58,1.312-4.089c-1.271,0.056-2.859,0.875-3.774,1.945
		c-0.809,0.942-1.533,2.486-1.346,3.938C24.608,12.149,26.074,11.327,26.99,10.25z"/>
	
		<linearGradient id="SVGID_1_" gradientUnits="userSpaceOnUse" x1="82.5127" y1="0.8901" x2="82.5127" y2="36.9467" gradientTransform="matrix(1 0 0 -1 0 41)">
		<stop  offset="0" style="stop-color:#1A1A1A;stop-opacity:0.1"/>
		<stop  offset="0.1235" style="stop-color:#212121;stop-opacity:0.1506"/>
		<stop  offset="0.3085" style="stop-color:#353535;stop-opacity:0.2265"/>
		<stop  offset="0.5321" style="stop-color:#575757;stop-opacity:0.3181"/>
		<stop  offset="0.7834" style="stop-color:#858585;stop-opacity:0.4212"/>
		<stop  offset="1" style="stop-color:#B3B3B3;stop-opacity:0.51"/>
	</linearGradient>
	<path fill="url(#SVGID_1_)" d="M105.27,0H55.026L81.35,40h23.92c2.604,0,4.729-2.117,4.729-4.723V4.726
		C110,2.121,107.875,0,105.27,0z"/>
	<g>
		<path fill="#FFFFFF" d="M47.036,19.039c0,0.382-0.125,0.691-0.375,0.929c-0.25,0.236-0.572,0.354-0.968,0.354
			c-0.355,0-0.654-0.121-0.898-0.365c-0.243-0.243-0.365-0.549-0.365-0.918c0-0.368,0.125-0.671,0.375-0.908
			c0.25-0.236,0.56-0.355,0.929-0.355c0.368,0,0.678,0.119,0.928,0.355C46.911,18.368,47.036,18.67,47.036,19.039z M46.799,31.498
			h-2.132v-9.596h2.132V31.498z"/>
		<path fill="#FFFFFF" d="M58.311,19.987h-3.832v11.511h-2.133V19.987h-3.791V18.19h9.753v1.797H58.311z"/>
		<path fill="#FFFFFF" d="M67.156,31.498h-1.875l-0.119-1.461h-0.039c-0.672,1.119-1.686,1.678-3.041,1.678
			c-0.947,0-1.705-0.296-2.271-0.888c-0.67-0.726-1.006-1.816-1.006-3.278v-5.646h2.133v5.291c0,1.845,0.631,2.766,1.896,2.766
			c0.946,0,1.604-0.461,1.976-1.382c0.092-0.237,0.139-0.507,0.139-0.81v-5.865h2.133v6.832
			C67.078,29.641,67.104,30.562,67.156,31.498z"/>
		<path fill="#FFFFFF" d="M78.41,31.498h-2.133v-5.509c0-1.698-0.646-2.548-1.937-2.548c-0.631,0-1.146,0.233-1.539,0.701
			c-0.395,0.467-0.592,1.018-0.592,1.648v5.706h-2.133v-6.853c0-0.842-0.027-1.756-0.08-2.744h1.877l0.099,1.48h0.061
			c0.25-0.46,0.617-0.842,1.105-1.145c0.577-0.355,1.223-0.533,1.934-0.533c0.896,0,1.639,0.289,2.232,0.867
			c0.735,0.712,1.104,1.771,1.104,3.18L78.41,31.498L78.41,31.498z"/>
		<path fill="#FFFFFF" d="M89.27,26.246c0,0.382-0.027,0.704-0.08,0.968h-6.396c0.025,0.947,0.336,1.672,0.928,2.172
			c0.539,0.447,1.238,0.671,2.094,0.671c0.947,0,1.81-0.15,2.586-0.453l0.336,1.479c-0.907,0.396-1.981,0.593-3.219,0.593
			c-1.488,0-2.656-0.438-3.504-1.312c-0.85-0.875-1.272-2.051-1.272-3.523c0-1.447,0.396-2.652,1.184-3.613
			c0.83-1.026,1.949-1.539,3.357-1.539c1.381,0,2.428,0.513,3.139,1.539C88.986,24.041,89.27,25.048,89.27,26.246z M87.236,25.693
			c0.012-0.633-0.127-1.178-0.416-1.639c-0.367-0.594-0.934-0.89-1.697-0.89c-0.697,0-1.264,0.29-1.697,0.869
			c-0.355,0.46-0.566,1.014-0.633,1.657h4.443V25.693z"/>
		<path fill="#FFFFFF" d="M97.542,28.732c0,0.896-0.33,1.613-0.987,2.152c-0.658,0.54-1.566,0.811-2.726,0.811
			c-1.093,0-2.021-0.217-2.783-0.651l0.453-1.579c0.737,0.447,1.521,0.671,2.351,0.671c1.092,0,1.639-0.401,1.639-1.204
			c0-0.354-0.117-0.647-0.355-0.879c-0.236-0.229-0.658-0.457-1.264-0.682c-1.711-0.632-2.566-1.553-2.566-2.764
			c0-0.83,0.316-1.521,0.947-2.073c0.633-0.554,1.469-0.829,2.508-0.829c0.947,0,1.758,0.189,2.43,0.572l-0.455,1.521
			c-0.619-0.368-1.27-0.553-1.955-0.553c-0.446,0-0.797,0.104-1.045,0.315c-0.252,0.211-0.377,0.479-0.377,0.81
			s0.133,0.6,0.396,0.81c0.223,0.197,0.658,0.415,1.303,0.651C96.712,26.462,97.542,27.43,97.542,28.732z"/>
	</g>
	<g>
		<path fill="#FFFFFF" d="M45.938,13.421c-0.519,0-0.969-0.025-1.343-0.067V7.718C45.08,7.642,45.606,7.6,46.175,7.6
			c2.143,0,3.128,1.054,3.128,2.771C49.303,12.351,48.139,13.421,45.938,13.421z M46.252,8.322c-0.289,0-0.536,0.018-0.739,0.06
			v4.284c0.11,0.017,0.322,0.025,0.62,0.025c1.402,0,2.201-0.799,2.201-2.295C48.334,9.062,47.612,8.322,46.252,8.322z"/>
		<path fill="#FFFFFF" d="M53.553,11.526h-2.754c0.018,0.782,0.536,1.225,1.301,1.225c0.408,0,0.782-0.068,1.113-0.196l0.145,0.638
			c-0.391,0.17-0.85,0.255-1.386,0.255c-1.291,0-2.057-0.815-2.057-2.082c0-1.267,0.782-2.218,1.955-2.218
			c1.054,0,1.717,0.781,1.717,1.963C53.587,11.271,53.579,11.416,53.553,11.526z M52.712,10.872c0-0.637-0.323-1.088-0.91-1.088
			c-0.526,0-0.943,0.459-1.003,1.088H52.712z"/>
		<path fill="#FFFFFF" d="M55.373,13.456c-0.467,0-0.866-0.094-1.198-0.28l0.195-0.68c0.315,0.195,0.655,0.288,1.012,0.288
			c0.468,0,0.706-0.17,0.706-0.518c0-0.307-0.179-0.477-0.697-0.672c-0.739-0.271-1.105-0.671-1.105-1.188
			c0-0.714,0.596-1.25,1.487-1.25c0.408,0,0.756,0.085,1.045,0.247l-0.194,0.654c-0.265-0.162-0.544-0.238-0.842-0.238
			c-0.382,0-0.611,0.204-0.611,0.484c0,0.264,0.145,0.408,0.729,0.629c0.715,0.264,1.072,0.688,1.072,1.25
			C56.971,12.955,56.368,13.456,55.373,13.456z"/>
		<path fill="#FFFFFF" d="M60.633,10.047c-0.229-0.11-0.501-0.17-0.799-0.17c-0.809,0-1.309,0.604-1.309,1.428
			c0,0.876,0.552,1.42,1.309,1.42c0.279,0,0.561-0.06,0.833-0.171l0.127,0.688c-0.297,0.145-0.681,0.213-1.14,0.213
			c-1.266,0-2.064-0.833-2.064-2.107c0-1.275,0.876-2.193,2.229-2.193c0.382,0,0.714,0.068,0.994,0.195L60.633,10.047z"/>
		<path fill="#FFFFFF" d="M63.865,13.371l-0.068-0.476h-0.025c-0.279,0.382-0.688,0.569-1.207,0.569
			c-0.738,0-1.267-0.519-1.267-1.216c0-1.02,0.884-1.547,2.414-1.547v-0.076c0-0.544-0.289-0.816-0.858-0.816
			c-0.408,0-0.765,0.103-1.078,0.307l-0.188-0.604c0.384-0.238,0.858-0.357,1.42-0.357c1.079,0,1.623,0.569,1.623,1.709v1.521
			c0,0.417,0.017,0.74,0.06,0.986H63.865z M63.736,11.314c-1.02,0-1.529,0.246-1.529,0.833c0,0.434,0.264,0.646,0.629,0.646
			c0.469,0,0.9-0.356,0.9-0.841V11.314z"/>
		<path fill="#FFFFFF" d="M67.943,10.047c-0.094-0.017-0.188-0.025-0.289-0.025c-0.596,0-0.978,0.468-0.978,1.182v2.167h-0.918
			v-2.83c0-0.477,0-0.909-0.024-1.301h0.799v0.791h0.06c0.179-0.527,0.62-0.876,1.122-0.876c0.085,0,0.161,0.009,0.229,0.018V10.047
			z"/>
		<path fill="#FFFFFF" d="M70.826,10.047c-0.094-0.017-0.188-0.025-0.289-0.025c-0.596,0-0.979,0.468-0.979,1.182v2.167h-0.918
			v-2.83c0-0.477,0-0.909-0.024-1.301h0.799v0.791h0.06c0.178-0.527,0.621-0.876,1.123-0.876c0.084,0,0.16,0.009,0.229,0.018V10.047
			z"/>
		<path fill="#FFFFFF" d="M74.889,11.526h-2.755c0.019,0.782,0.536,1.225,1.302,1.225c0.407,0,0.781-0.068,1.112-0.196l0.146,0.638
			c-0.392,0.17-0.851,0.255-1.387,0.255c-1.291,0-2.057-0.815-2.057-2.082c0-1.267,0.782-2.218,1.955-2.218
			c1.054,0,1.717,0.781,1.717,1.963C74.922,11.271,74.914,11.416,74.889,11.526z M74.047,10.872c0-0.637-0.322-1.088-0.91-1.088
			c-0.525,0-0.943,0.459-1.003,1.088H74.047z"/>
		<path fill="#FFFFFF" d="M79.4,9.24c-0.024,0.332-0.032,0.723-0.032,1.173v2.363c0,1.733-0.767,2.362-2.125,2.362
			c-0.569,0-1.037-0.11-1.386-0.322l0.213-0.706c0.349,0.213,0.738,0.314,1.173,0.314c0.808,0,1.215-0.434,1.215-1.309v-0.399
			h-0.017c-0.256,0.416-0.664,0.629-1.217,0.629c-0.994,0-1.717-0.858-1.717-2.015c0-1.267,0.791-2.176,1.827-2.176
			c0.562,0,0.961,0.222,1.207,0.654h0.019V9.24H79.4z M78.45,10.872c0-0.552-0.374-1.011-0.943-1.011
			c-0.62,0-1.071,0.561-1.071,1.436c0,0.808,0.435,1.36,1.071,1.36c0.519,0,0.943-0.425,0.943-1.054V10.872z"/>
		<path fill="#FFFFFF" d="M82.793,13.371l-0.068-0.476H82.7c-0.28,0.382-0.688,0.569-1.207,0.569c-0.739,0-1.267-0.519-1.267-1.216
			c0-1.02,0.883-1.547,2.414-1.547v-0.076c0-0.544-0.289-0.816-0.858-0.816c-0.408,0-0.765,0.103-1.079,0.307l-0.188-0.604
			c0.383-0.238,0.857-0.357,1.42-0.357c1.078,0,1.623,0.569,1.623,1.709v1.521c0,0.417,0.017,0.74,0.06,0.986H82.793z
			 M82.666,11.314c-1.02,0-1.529,0.246-1.529,0.833c0,0.434,0.264,0.646,0.629,0.646c0.467,0,0.9-0.356,0.9-0.841V11.314z"/>
		<path fill="#FFFFFF" d="M86.874,10.047c-0.095-0.017-0.188-0.025-0.289-0.025c-0.597,0-0.978,0.468-0.978,1.182v2.167h-0.918
			v-2.83c0-0.477,0-0.909-0.025-1.301h0.799v0.791h0.061c0.178-0.527,0.619-0.876,1.121-0.876c0.086,0,0.162,0.009,0.229,0.018
			V10.047z"/>
		<path fill="#FFFFFF" d="M93.163,13.371h-0.918V11c0-0.731-0.281-1.097-0.833-1.097c-0.544,0-0.918,0.468-0.918,1.012v2.456h-0.918
			v-2.949c0-0.365-0.01-0.757-0.034-1.182h0.808l0.043,0.638h0.024c0.247-0.442,0.748-0.723,1.31-0.723
			c0.866,0,1.438,0.663,1.438,1.742L93.163,13.371L93.163,13.371z"/>
		<path fill="#FFFFFF" d="M96.02,13.464c-1.207,0-1.99-0.901-1.99-2.125c0-1.275,0.8-2.185,2.058-2.185
			c1.19,0,1.989,0.858,1.989,2.116C98.076,12.563,97.251,13.464,96.02,13.464z M96.053,9.827c-0.662,0-1.088,0.62-1.088,1.487
			c0,0.85,0.434,1.47,1.079,1.47s1.079-0.662,1.079-1.487C97.124,10.456,96.699,9.827,96.053,9.827z"/>
	</g>
</g>
</svg>
