<?xml version="1.0" encoding="utf-8"?>
<!-- Generator: Adobe Illustrator 16.2.1, SVG Export Plug-In . SVG Version: 6.00 Build 0)  -->
<!DOCTYPE svg PUBLIC "-//W3C//DTD SVG 1.1//EN" "http://www.w3.org/Graphics/SVG/1.1/DTD/svg11.dtd">
<svg version="1.1" id="Outlined_type" xmlns="http://www.w3.org/2000/svg" xmlns:xlink="http://www.w3.org/1999/xlink" x="0px"
	 y="0px" width="110px" height="40px" viewBox="0 0 110 40" enable-background="new 0 0 110 40" xml:space="preserve">
<g>
	<g>
		<path fill="#A6A6A6" d="M103.371,0H6.625C6.372,0,6.119,0,5.866,0.001C5.652,0.002,5.444,0.004,5.23,0.01
			C4.765,0.025,4.297,0.049,3.837,0.135c-0.467,0.082-0.9,0.221-1.32,0.436C2.099,0.783,1.721,1.057,1.386,1.385
			c-0.33,0.336-0.603,0.713-0.814,1.132C0.355,2.936,0.218,3.369,0.136,3.836c-0.087,0.461-0.11,0.93-0.127,1.395
			C0.005,5.443,0.003,5.652,0.001,5.865c-0.001,0.254,0,0.506,0,0.76v26.754c0,0.248-0.001,0.506,0,0.756
			c0.002,0.211,0.004,0.426,0.008,0.639c0.017,0.471,0.04,0.934,0.127,1.389c0.082,0.473,0.22,0.906,0.436,1.33
			c0.212,0.408,0.484,0.799,0.814,1.121c0.335,0.334,0.713,0.613,1.131,0.824c0.42,0.217,0.854,0.344,1.32,0.438
			c0.46,0.08,0.928,0.105,1.394,0.115c0.214,0.004,0.422,0.006,0.636,0.008C6.119,40,6.372,40,6.625,40h96.746
			c0.252,0,0.506,0,0.76-0.002c0.211-0.002,0.426-0.004,0.641-0.008c0.463-0.01,0.932-0.035,1.393-0.115
			c0.461-0.094,0.895-0.221,1.32-0.438c0.42-0.211,0.797-0.49,1.127-0.824c0.328-0.322,0.607-0.713,0.818-1.121
			c0.217-0.424,0.354-0.857,0.436-1.33c0.082-0.455,0.111-0.918,0.123-1.389c0.008-0.213,0.01-0.428,0.01-0.639
			C110,33.885,110,33.627,110,33.379V6.625c0-0.254,0-0.506-0.002-0.76c0-0.213-0.002-0.422-0.01-0.635
			c-0.012-0.465-0.041-0.934-0.123-1.395c-0.082-0.467-0.219-0.9-0.436-1.319c-0.211-0.419-0.49-0.796-0.818-1.132
			c-0.33-0.328-0.707-0.602-1.127-0.814c-0.426-0.215-0.859-0.354-1.32-0.436c-0.461-0.086-0.93-0.109-1.393-0.125
			c-0.215-0.006-0.43-0.008-0.641-0.009C103.877,0,103.623,0,103.371,0L103.371,0z"/>
		<path d="M103.371,0.984l0.752,0.002c0.207,0.001,0.416,0.003,0.619,0.013c0.379,0.009,0.818,0.026,1.246,0.108
			c0.395,0.07,0.727,0.18,1.051,0.342c0.32,0.166,0.615,0.38,0.875,0.637c0.258,0.258,0.473,0.553,0.639,0.877
			c0.162,0.322,0.271,0.654,0.342,1.05c0.076,0.423,0.096,0.864,0.105,1.24c0.006,0.207,0.008,0.415,0.008,0.624
			c0.002,0.251,0.002,0.496,0.002,0.748v26.754c0,0.246,0,0.502-0.002,0.75c0,0.207-0.002,0.416-0.008,0.621
			c-0.01,0.377-0.029,0.818-0.105,1.244c-0.07,0.387-0.18,0.725-0.342,1.053c-0.166,0.318-0.381,0.613-0.639,0.875
			c-0.26,0.254-0.555,0.467-0.877,0.627c-0.322,0.174-0.654,0.277-1.047,0.35c-0.434,0.074-0.893,0.104-1.244,0.111
			c-0.205,0.004-0.412,0.006-0.623,0.008c-0.25,0.002-0.502,0.002-0.752,0.002H6.625c-0.003,0-0.005,0-0.007,0
			c-0.249,0-0.498,0-0.748-0.002c-0.203-0.002-0.412-0.004-0.617-0.008c-0.349-0.008-0.811-0.037-1.24-0.111
			c-0.396-0.072-0.728-0.176-1.051-0.35c-0.324-0.16-0.617-0.373-0.875-0.627c-0.257-0.262-0.471-0.557-0.639-0.875
			c-0.16-0.328-0.27-0.666-0.341-1.055c-0.081-0.426-0.099-0.865-0.108-1.242c-0.01-0.207-0.012-0.416-0.013-0.621l-0.001-0.6v-0.15
			V6.625v-0.15l0.001-0.598c0.001-0.209,0.003-0.416,0.013-0.625c0.01-0.373,0.027-0.814,0.109-1.24
			c0.07-0.395,0.18-0.727,0.341-1.051C1.616,2.639,1.83,2.344,2.087,2.087C2.345,1.83,2.638,1.615,2.962,1.448
			c0.322-0.161,0.655-0.271,1.05-0.341c0.427-0.082,0.867-0.1,1.241-0.108c0.208-0.01,0.416-0.012,0.623-0.013l0.749-0.002H103.371"
			/>
		<g>
			<g>
				<path fill="#FFFFFF" d="M30.128,19.783c-0.029-3.223,2.639-4.791,2.762-4.864c-1.512-2.203-3.854-2.505-4.676-2.528
					c-1.968-0.206-3.875,1.178-4.877,1.178c-1.022,0-2.566-1.156-4.229-1.123c-2.139,0.033-4.142,1.272-5.24,3.196
					c-2.266,3.923-0.575,9.688,1.596,12.858c1.086,1.553,2.354,3.287,4.016,3.227c1.625-0.068,2.231-1.037,4.193-1.037
					c1.943,0,2.512,1.037,4.207,0.998c1.743-0.029,2.842-1.561,3.89-3.127c1.255-1.781,1.759-3.533,1.778-3.623
					C33.508,24.924,30.161,23.646,30.128,19.783z"/>
				<path fill="#FFFFFF" d="M26.929,10.306c0.873-1.093,1.471-2.58,1.305-4.089c-1.265,0.056-2.847,0.874-3.758,1.943
					c-0.805,0.942-1.525,2.486-1.34,3.938C24.558,12.204,26.017,11.382,26.929,10.306z"/>
			</g>
		</g>
	</g>
	<g>
		<path fill="#FFFFFF" d="M46.362,7.194c0,0.271-0.089,0.49-0.266,0.658c-0.178,0.168-0.406,0.252-0.686,0.252
			c-0.252,0-0.464-0.086-0.637-0.259c-0.173-0.172-0.259-0.39-0.259-0.651s0.088-0.476,0.266-0.644s0.397-0.252,0.658-0.252
			s0.48,0.084,0.658,0.252C46.273,6.718,46.362,6.933,46.362,7.194z M46.194,16.028h-1.512V9.224h1.512V16.028z"/>
		<path fill="#FFFFFF" d="M54.398,7.866h-2.702v8.162h-1.512V7.866h-2.688V6.592h6.902V7.866z"/>
		<path fill="#FFFFFF" d="M61.033,16.028h-1.33l-0.084-1.036h-0.027c-0.477,0.793-1.195,1.19-2.156,1.19
			c-0.672,0-1.208-0.21-1.61-0.63c-0.476-0.513-0.714-1.288-0.714-2.324V9.224h1.512v3.752c0,1.307,0.449,1.96,1.345,1.96
			c0.672,0,1.137-0.327,1.398-0.98c0.066-0.168,0.098-0.359,0.098-0.574V9.224h1.514v4.844
			C60.979,14.712,60.996,15.366,61.033,16.028z"/>
		<path fill="#FFFFFF" d="M68.789,16.028h-1.512v-3.896c0-1.201-0.457-1.802-1.373-1.802c-0.447,0-0.811,0.166-1.092,0.496
			c-0.279,0.331-0.42,0.719-0.42,1.166v4.036h-1.512V11.17c0-0.597-0.018-1.246-0.055-1.946h1.328l0.07,1.064h0.043
			c0.178-0.331,0.438-0.604,0.783-0.821c0.41-0.255,0.869-0.382,1.373-0.382c0.635,0,1.162,0.205,1.582,0.616
			c0.521,0.504,0.783,1.255,0.783,2.254V16.028z"/>
		<path fill="#FFFFFF" d="M76.266,12.304c0,0.271-0.02,0.5-0.057,0.686h-4.535c0.018,0.672,0.238,1.186,0.658,1.54
			c0.383,0.317,0.877,0.476,1.482,0.476c0.674,0,1.283-0.107,1.834-0.322l0.238,1.05c-0.643,0.28-1.404,0.42-2.281,0.42
			c-1.055,0-1.883-0.31-2.484-0.931c-0.604-0.621-0.904-1.454-0.904-2.499c0-1.026,0.281-1.88,0.84-2.562
			c0.588-0.728,1.383-1.092,2.381-1.092c0.98,0,1.723,0.364,2.227,1.092C76.064,10.741,76.266,11.455,76.266,12.304z M74.824,11.912
			c0.008-0.448-0.09-0.835-0.295-1.162c-0.262-0.42-0.662-0.63-1.203-0.63c-0.496,0-0.896,0.206-1.205,0.616
			c-0.252,0.327-0.4,0.719-0.447,1.176H74.824z"/>
		<path fill="#FFFFFF" d="M82.117,14.073c0,0.633-0.232,1.141-0.699,1.522s-1.111,0.573-1.934,0.573
			c-0.773,0-1.432-0.154-1.973-0.462l0.322-1.12c0.521,0.317,1.078,0.476,1.666,0.476c0.773,0,1.162-0.285,1.162-0.854
			c0-0.252-0.084-0.46-0.252-0.623s-0.467-0.324-0.896-0.483c-1.213-0.448-1.82-1.102-1.82-1.96c0-0.588,0.225-1.078,0.672-1.47
			s1.041-0.588,1.777-0.588c0.672,0,1.246,0.137,1.723,0.411l-0.322,1.087c-0.438-0.261-0.9-0.392-1.385-0.392
			c-0.318,0-0.566,0.075-0.742,0.224c-0.178,0.149-0.268,0.339-0.268,0.572s0.094,0.424,0.281,0.573
			c0.158,0.14,0.467,0.293,0.924,0.461C81.529,12.467,82.117,13.151,82.117,14.073z"/>
		<path fill="#FFFFFF" d="M85.67,7.469c1.287,0,2.062,1.026,2.213,2.715h0.785V6.986h1.166v9.09h-1.166v-4.887h-0.766
			c-0.09,1.84-0.854,2.956-2.232,2.956c-1.377,0-2.201-1.267-2.201-3.328C83.469,8.746,84.264,7.469,85.67,7.469z M84.596,10.807
			c0,1.328,0.352,2.353,1.064,2.353c0.775,0,1.107-1.016,1.107-2.353s-0.332-2.363-1.107-2.363
			C84.887,8.444,84.596,9.48,84.596,10.807z M91.604,16.388h-1.166V6.936h1.166V16.388z"/>
		<path fill="#FFFFFF" d="M96.797,7.358v2.645c0,1.498,1.236,2.604,2.504,3.218l-0.574,0.895c-0.814-0.473-1.939-1.237-2.533-2.263
			c-0.533,1.036-1.559,1.84-2.564,2.464l-0.754-0.805c1.428-0.794,2.715-1.971,2.715-3.54V7.358H96.797z M101.281,16.388h-1.186
			v-5.762h-1.842V9.671h1.842V6.936h1.186V16.388z"/>
	</g>
	<g>
		<g>
			<path fill="#FFFFFF" d="M49.497,27.766h-4.798v-4.672h1.191v1.516h2.404v-1.516h1.202V27.766z M52.506,32.48H45.87v-3.773h6.47
				v0.982h-5.236v1.818h5.403V32.48z M48.294,26.814v-1.264H45.89v1.264H48.294z M53.834,25.801h-1.548v2.33h-1.232v-5.414h1.232
				v2.092h1.548V25.801z"/>
			<path fill="#FFFFFF" d="M60.166,23.428c-0.041,3.973-1.881,5.781-4.411,7.15l-0.773-0.848c2.583-1.41,3.815-2.938,3.877-5.309
				h-3.48v-0.994H60.166z M62.936,32.543h-1.232v-9.826h1.232V32.543z"/>
		</g>
	</g>
</g>
</svg>
