<?xml version="1.0" encoding="utf-8"?>
<!-- Generator: Adobe Illustrator 15.1.0, SVG Export Plug-In . SVG Version: 6.00 Build 0)  -->
<!DOCTYPE svg PUBLIC "-//W3C//DTD SVG 1.1//EN" "http://www.w3.org/Graphics/SVG/1.1/DTD/svg11.dtd">
<svg version="1.1" id="Layer_1" xmlns="http://www.w3.org/2000/svg" xmlns:xlink="http://www.w3.org/1999/xlink" x="0px" y="0px"
	 width="110px" height="40px" viewBox="0 0 110 40" enable-background="new 0 0 110 40" xml:space="preserve">
<g>
	<path fill="#A6A6A6" d="M105.27,40H4.729C2.122,40,0,37.882,0,35.277V4.726C0,2.12,2.122,0,4.729,0H105.27
		c2.604,0,4.729,2.12,4.729,4.726v30.551C109.998,37.882,107.875,40,105.27,40L105.27,40z"/>
	<path d="M109.104,35.277c0,2.117-1.713,3.83-3.834,3.83H4.729c-2.119,0-3.839-1.713-3.839-3.83V4.726
		c0-2.116,1.72-3.836,3.839-3.836H105.27c2.121,0,3.834,1.72,3.834,3.836V35.277z"/>
	<path fill="#FFFFFF" d="M30.205,19.728c-0.03-3.223,2.65-4.791,2.773-4.864c-1.518-2.204-3.871-2.505-4.696-2.529
		c-1.977-0.207-3.892,1.178-4.899,1.178c-1.026,0-2.576-1.157-4.246-1.124c-2.148,0.034-4.16,1.272-5.263,3.196
		c-2.276,3.923-0.578,9.69,1.602,12.858c1.09,1.556,2.365,3.287,4.033,3.227c1.632-0.064,2.241-1.036,4.211-1.036
		c1.951,0,2.524,1.036,4.225,0.997c1.752-0.025,2.855-1.559,3.907-3.126c1.261-1.78,1.767-3.532,1.787-3.623
		C33.599,24.867,30.238,23.592,30.205,19.728z"/>
	<path fill="#FFFFFF" d="M26.99,10.25c0.877-1.093,1.479-2.58,1.312-4.089c-1.271,0.056-2.859,0.875-3.774,1.945
		c-0.809,0.942-1.533,2.486-1.346,3.938C24.608,12.149,26.074,11.327,26.99,10.25z"/>
	
		<linearGradient id="SVGID_1_" gradientUnits="userSpaceOnUse" x1="82.5127" y1="0.8901" x2="82.5127" y2="36.9467" gradientTransform="matrix(1 0 0 -1 0 41)">
		<stop  offset="0" style="stop-color:#1A1A1A;stop-opacity:0.1"/>
		<stop  offset="0.1235" style="stop-color:#212121;stop-opacity:0.1506"/>
		<stop  offset="0.3085" style="stop-color:#353535;stop-opacity:0.2265"/>
		<stop  offset="0.5321" style="stop-color:#575757;stop-opacity:0.3181"/>
		<stop  offset="0.7834" style="stop-color:#858585;stop-opacity:0.4212"/>
		<stop  offset="1" style="stop-color:#B3B3B3;stop-opacity:0.51"/>
	</linearGradient>
	<path fill="url(#SVGID_1_)" d="M105.27,0H55.026L81.35,40h23.92c2.604,0,4.729-2.117,4.729-4.723V4.726
		C110,2.121,107.875,0,105.27,0z"/>
	<g>
		<path fill="#FFFFFF" d="M47.036,19.039c0,0.382-0.125,0.691-0.375,0.929c-0.25,0.236-0.572,0.354-0.968,0.354
			c-0.355,0-0.654-0.121-0.898-0.365c-0.243-0.243-0.365-0.549-0.365-0.918c0-0.368,0.125-0.671,0.375-0.908
			c0.25-0.236,0.56-0.355,0.929-0.355c0.368,0,0.678,0.119,0.928,0.355C46.911,18.368,47.036,18.67,47.036,19.039z M46.799,31.498
			h-2.132v-9.596h2.132V31.498z"/>
		<path fill="#FFFFFF" d="M58.311,19.987h-3.832v11.511h-2.133V19.987h-3.791V18.19h9.753v1.797H58.311z"/>
		<path fill="#FFFFFF" d="M67.156,31.498h-1.875l-0.119-1.461h-0.039c-0.672,1.119-1.686,1.678-3.041,1.678
			c-0.947,0-1.705-0.296-2.271-0.888c-0.67-0.726-1.006-1.816-1.006-3.278v-5.646h2.133v5.291c0,1.845,0.631,2.766,1.896,2.766
			c0.946,0,1.604-0.461,1.976-1.382c0.092-0.237,0.139-0.507,0.139-0.81v-5.865h2.133v6.832
			C67.078,29.641,67.104,30.562,67.156,31.498z"/>
		<path fill="#FFFFFF" d="M78.41,31.498h-2.133v-5.509c0-1.698-0.646-2.548-1.937-2.548c-0.631,0-1.146,0.233-1.539,0.701
			c-0.395,0.467-0.592,1.018-0.592,1.648v5.706h-2.133v-6.853c0-0.842-0.027-1.756-0.08-2.744h1.877l0.099,1.48h0.061
			c0.25-0.46,0.617-0.842,1.105-1.145c0.577-0.355,1.223-0.533,1.934-0.533c0.896,0,1.639,0.289,2.232,0.867
			c0.735,0.712,1.104,1.771,1.104,3.18L78.41,31.498L78.41,31.498z"/>
		<path fill="#FFFFFF" d="M89.27,26.246c0,0.382-0.027,0.704-0.08,0.968h-6.396c0.025,0.947,0.336,1.672,0.928,2.172
			c0.539,0.447,1.238,0.671,2.094,0.671c0.947,0,1.81-0.15,2.586-0.453l0.336,1.479c-0.907,0.396-1.981,0.593-3.219,0.593
			c-1.488,0-2.656-0.438-3.504-1.312c-0.85-0.875-1.272-2.051-1.272-3.523c0-1.447,0.396-2.652,1.184-3.613
			c0.83-1.026,1.949-1.539,3.357-1.539c1.381,0,2.428,0.513,3.139,1.539C88.986,24.041,89.27,25.048,89.27,26.246z M87.236,25.693
			c0.012-0.633-0.127-1.178-0.416-1.639c-0.367-0.594-0.934-0.89-1.697-0.89c-0.697,0-1.264,0.29-1.697,0.869
			c-0.355,0.46-0.566,1.014-0.633,1.657h4.443V25.693z"/>
		<path fill="#FFFFFF" d="M97.542,28.732c0,0.896-0.33,1.613-0.987,2.152c-0.658,0.54-1.566,0.811-2.726,0.811
			c-1.093,0-2.021-0.217-2.783-0.651l0.453-1.579c0.737,0.447,1.521,0.671,2.351,0.671c1.092,0,1.639-0.401,1.639-1.204
			c0-0.354-0.117-0.647-0.355-0.879c-0.236-0.229-0.658-0.457-1.264-0.682c-1.711-0.632-2.566-1.553-2.566-2.764
			c0-0.83,0.316-1.521,0.947-2.073c0.633-0.554,1.469-0.829,2.508-0.829c0.947,0,1.758,0.189,2.43,0.572l-0.455,1.521
			c-0.619-0.368-1.27-0.553-1.955-0.553c-0.446,0-0.797,0.104-1.045,0.315c-0.252,0.211-0.377,0.479-0.377,0.81
			s0.133,0.6,0.396,0.81c0.223,0.197,0.658,0.415,1.303,0.651C96.712,26.462,97.542,27.43,97.542,28.732z"/>
	</g>
	<g>
		<path fill="#FFFFFF" d="M46.222,10.992c-0.251,0-0.437-0.019-0.576-0.047v2.426h-0.994v-6.18c0.474-0.084,1.022-0.13,1.636-0.13
			c1.562,0,2.369,0.697,2.369,1.868C48.657,10.257,47.691,10.992,46.222,10.992z M46.325,7.841c-0.279,0-0.502,0.019-0.679,0.056
			v2.249c0.14,0.037,0.335,0.056,0.586,0.056c0.892,0,1.431-0.455,1.431-1.227C47.663,8.241,47.17,7.841,46.325,7.841z"/>
		<path fill="#FFFFFF" d="M51.7,13.473c-1.319,0-2.174-0.985-2.174-2.323c0-1.395,0.873-2.389,2.248-2.389
			c1.302,0,2.175,0.938,2.175,2.314C53.949,12.488,53.047,13.473,51.7,13.473z M51.737,9.496c-0.725,0-1.189,0.679-1.189,1.626
			c0,0.93,0.475,1.607,1.181,1.607s1.18-0.725,1.18-1.626C52.908,10.183,52.443,9.496,51.737,9.496z"/>
		<path fill="#FFFFFF" d="M57.41,13.473c-0.641,0-1.114-0.27-1.422-0.8h-0.018l-0.058,0.697h-0.854
			c0.028-0.362,0.037-0.771,0.037-1.218v-5.37H56.1v2.732h0.02c0.297-0.502,0.779-0.753,1.439-0.753c1.088,0,1.85,0.93,1.85,2.286
			C59.408,12.451,58.562,13.473,57.41,13.473z M57.206,9.551c-0.576,0-1.104,0.502-1.104,1.199v0.789
			c0,0.623,0.474,1.134,1.086,1.134c0.754,0,1.199-0.613,1.199-1.589C58.387,10.174,57.921,9.551,57.206,9.551z"/>
		<path fill="#FFFFFF" d="M61.047,8.111c-0.335,0-0.595-0.26-0.595-0.604c0-0.344,0.271-0.595,0.612-0.595
			c0.344,0,0.623,0.251,0.613,0.595C61.68,7.87,61.419,8.111,61.047,8.111z M61.568,13.371h-1.004V8.854h1.004V13.371z"/>
		<path fill="#FFFFFF" d="M66.699,11.354h-3.012c0.02,0.855,0.586,1.338,1.422,1.338c0.447,0,0.855-0.074,1.219-0.214l0.156,0.697
			c-0.426,0.186-0.928,0.279-1.514,0.279c-1.412,0-2.248-0.893-2.248-2.277c0-1.384,0.854-2.425,2.137-2.425
			c1.152,0,1.877,0.854,1.877,2.146C66.736,11.076,66.727,11.233,66.699,11.354z M65.779,10.638c0-0.696-0.354-1.189-0.994-1.189
			c-0.576,0-1.031,0.502-1.098,1.189H65.779z"/>
		<path fill="#FFFFFF" d="M70.253,9.737C70.15,9.718,70.048,9.71,69.938,9.71c-0.65,0-1.068,0.511-1.068,1.292v2.369h-1.004v-3.095
			c0-0.521,0-0.994-0.027-1.422h0.873v0.864h0.064c0.195-0.576,0.679-0.957,1.228-0.957c0.093,0,0.177,0.01,0.251,0.02L70.253,9.737
			L70.253,9.737z"/>
		<path fill="#FFFFFF" d="M74.427,13.371h-3.68v-0.585l1.803-2.37c0.111-0.148,0.315-0.391,0.613-0.734V9.663h-2.239V8.854h3.456
			v0.623l-1.767,2.332c-0.193,0.251-0.398,0.502-0.612,0.734v0.019h2.427C74.428,12.562,74.428,13.371,74.427,13.371z"/>
		<path fill="#FFFFFF" d="M83.855,8.854l-1.412,4.517h-0.92l-0.586-1.961c-0.147-0.492-0.27-0.976-0.361-1.459h-0.02
			c-0.074,0.493-0.214,0.985-0.361,1.459l-0.623,1.961h-0.93l-1.328-4.517h1.031l0.51,2.147c0.121,0.511,0.225,0.994,0.308,1.449
			h0.019c0.074-0.381,0.195-0.854,0.373-1.44l0.641-2.156h0.818l0.612,2.109c0.147,0.512,0.271,1.014,0.362,1.487h0.027
			c0.064-0.465,0.168-0.957,0.308-1.487l0.548-2.109H83.855z"/>
	</g>
</g>
</svg>
