<?xml version="1.0" encoding="utf-8"?>
<!-- Generator: Adobe Illustrator 16.2.1, SVG Export Plug-In . SVG Version: 6.00 Build 0)  -->
<!DOCTYPE svg PUBLIC "-//W3C//DTD SVG 1.1//EN" "http://www.w3.org/Graphics/SVG/1.1/DTD/svg11.dtd">
<svg version="1.1" id="Livetype" xmlns="http://www.w3.org/2000/svg" xmlns:xlink="http://www.w3.org/1999/xlink" x="0px" y="0px"
	 width="110px" height="40px" viewBox="0 0 110 40" enable-background="new 0 0 110 40" xml:space="preserve">
<g>
	<path fill="#A6A6A6" d="M103.371,0H6.625C6.372,0,6.119,0,5.866,0.001C5.652,0.002,5.443,0.005,5.23,0.01
		c-0.465,0.016-0.934,0.04-1.395,0.125c-0.467,0.082-0.9,0.22-1.319,0.436C2.098,0.783,1.721,1.057,1.386,1.386
		C1.057,1.721,0.783,2.098,0.57,2.517C0.355,2.936,0.217,3.37,0.136,3.837c-0.087,0.46-0.11,0.929-0.126,1.394
		C0.004,5.444,0.002,5.652,0.002,5.866C0,6.119,0,6.372,0,6.625v26.753c0,0.248,0,0.506,0.002,0.756
		c0,0.211,0.002,0.426,0.008,0.639c0.016,0.471,0.039,0.934,0.126,1.389c0.081,0.473,0.22,0.906,0.435,1.33
		c0.213,0.408,0.486,0.799,0.815,1.121c0.335,0.334,0.712,0.613,1.131,0.824c0.419,0.217,0.853,0.344,1.319,0.438
		c0.461,0.08,0.93,0.105,1.395,0.115c0.213,0.004,0.422,0.006,0.636,0.008C6.119,40,6.372,40,6.625,40h96.746
		c0.252,0,0.506,0,0.76-0.002c0.211-0.002,0.426-0.004,0.641-0.008c0.463-0.01,0.932-0.035,1.393-0.115
		c0.461-0.094,0.895-0.221,1.32-0.438c0.42-0.211,0.797-0.49,1.127-0.824c0.328-0.322,0.607-0.713,0.818-1.121
		c0.217-0.424,0.354-0.857,0.436-1.33c0.082-0.455,0.111-0.918,0.123-1.389c0.008-0.213,0.01-0.428,0.01-0.639
		C110,33.885,110,33.627,110,33.379V6.625c0-0.254,0-0.506-0.002-0.76c0-0.213-0.002-0.421-0.01-0.635
		c-0.012-0.465-0.041-0.934-0.123-1.394c-0.082-0.467-0.219-0.901-0.436-1.32c-0.211-0.419-0.49-0.796-0.818-1.131
		c-0.33-0.329-0.707-0.603-1.127-0.815c-0.426-0.215-0.859-0.354-1.32-0.436c-0.461-0.086-0.93-0.11-1.393-0.125
		c-0.215-0.005-0.43-0.007-0.641-0.008C103.877,0,103.623,0,103.371,0L103.371,0z"/>
	<path d="M103.371,0.985l0.752,0.001c0.207,0.001,0.416,0.003,0.619,0.013c0.379,0.009,0.818,0.027,1.246,0.108
		c0.395,0.071,0.727,0.18,1.051,0.342c0.32,0.166,0.615,0.38,0.875,0.638c0.258,0.258,0.473,0.552,0.639,0.876
		c0.162,0.322,0.271,0.654,0.342,1.05c0.076,0.423,0.096,0.865,0.105,1.24c0.006,0.207,0.008,0.415,0.008,0.625
		c0.002,0.25,0.002,0.496,0.002,0.748v26.753c0,0.246,0,0.502-0.002,0.75c0,0.207-0.002,0.416-0.008,0.621
		c-0.01,0.377-0.029,0.818-0.105,1.244c-0.07,0.387-0.18,0.725-0.342,1.053c-0.166,0.318-0.381,0.613-0.639,0.875
		c-0.26,0.254-0.555,0.467-0.877,0.627c-0.322,0.174-0.654,0.277-1.047,0.35c-0.434,0.074-0.893,0.104-1.244,0.111
		c-0.205,0.004-0.412,0.006-0.623,0.008c-0.25,0.002-0.502,0.002-0.752,0.002H6.625c-0.002,0-0.005,0-0.008,0
		c-0.248,0-0.496,0-0.748-0.002c-0.203-0.002-0.411-0.004-0.616-0.008c-0.349-0.008-0.81-0.037-1.241-0.111
		c-0.395-0.072-0.727-0.176-1.051-0.35c-0.322-0.16-0.617-0.373-0.874-0.627c-0.257-0.262-0.472-0.557-0.638-0.875
		c-0.162-0.328-0.271-0.666-0.342-1.055C1.025,35.566,1.008,35.127,1,34.75c-0.01-0.207-0.012-0.416-0.014-0.621v-0.6v-0.15V6.625
		v-0.15V5.877C0.988,5.669,0.99,5.461,1,5.253c0.008-0.374,0.025-0.814,0.107-1.241c0.07-0.394,0.18-0.727,0.342-1.05
		C1.615,2.639,1.83,2.345,2.088,2.087c0.256-0.257,0.551-0.472,0.874-0.639c0.323-0.161,0.655-0.27,1.05-0.341
		C4.438,1.026,4.879,1.008,5.254,1c0.207-0.01,0.415-0.012,0.623-0.013l0.748-0.001H103.371"/>
	<g>
		<g>
			<path fill="#FFFFFF" d="M30.129,19.784c-0.029-3.223,2.639-4.791,2.76-4.864c-1.51-2.203-3.853-2.504-4.676-2.528
				c-1.967-0.207-3.874,1.177-4.877,1.177c-1.021,0-2.564-1.157-4.227-1.123c-2.141,0.033-4.143,1.272-5.24,3.196
				c-2.266,3.923-0.576,9.688,1.594,12.858c1.086,1.553,2.355,3.287,4.016,3.227c1.625-0.068,2.232-1.037,4.193-1.037
				c1.943,0,2.514,1.037,4.207,0.998c1.744-0.029,2.843-1.561,3.891-3.127c1.255-1.781,1.759-3.533,1.779-3.623
				C33.508,24.924,30.162,23.646,30.129,19.784z"/>
			<path fill="#FFFFFF" d="M26.928,10.306c0.874-1.093,1.473-2.58,1.307-4.089c-1.266,0.056-2.848,0.875-3.758,1.944
				c-0.807,0.942-1.526,2.486-1.34,3.938C24.557,12.205,26.016,11.382,26.928,10.306z"/>
		</g>
	</g>
	<g>
		<path fill="#FFFFFF" d="M49.825,10.082c0,1.131-0.339,1.982-1.016,2.554c-0.627,0.528-1.519,0.792-2.675,0.792
			c-0.572,0-1.062-0.025-1.473-0.075V7.174c0.535-0.087,1.112-0.13,1.734-0.13c1.1,0,1.929,0.239,2.488,0.717
			C49.511,8.302,49.825,9.076,49.825,10.082z M48.763,10.11c0-0.733-0.194-1.295-0.583-1.687c-0.389-0.392-0.956-0.587-1.701-0.587
			c-0.317,0-0.587,0.022-0.811,0.065v4.697c0.124,0.019,0.351,0.028,0.68,0.028c0.771,0,1.365-0.214,1.785-0.643
			S48.763,10.93,48.763,10.11z"/>
		<path fill="#FFFFFF" d="M55.119,11.07c0,0.696-0.199,1.268-0.597,1.715c-0.417,0.46-0.969,0.69-1.659,0.69
			c-0.665,0-1.195-0.221-1.589-0.662c-0.395-0.441-0.592-0.998-0.592-1.668c0-0.702,0.204-1.277,0.61-1.724
			C51.7,8.973,52.249,8.75,52.938,8.75c0.665,0,1.199,0.221,1.603,0.662C54.926,9.84,55.119,10.393,55.119,11.07z M54.075,11.103
			c0-0.417-0.09-0.775-0.271-1.075c-0.211-0.361-0.512-0.542-0.904-0.542c-0.404,0-0.711,0.181-0.923,0.542
			c-0.18,0.299-0.27,0.664-0.27,1.093c0,0.418,0.09,0.776,0.27,1.075c0.218,0.361,0.522,0.542,0.914,0.542
			c0.385,0,0.687-0.184,0.904-0.551C53.982,11.882,54.075,11.52,54.075,11.103z"/>
		<path fill="#FFFFFF" d="M62.332,8.843l-1.416,4.529h-0.923l-0.587-1.966c-0.149-0.491-0.271-0.979-0.363-1.463h-0.02
			c-0.087,0.497-0.208,0.985-0.363,1.463l-0.624,1.966h-0.933l-1.333-4.529h1.035l0.513,2.153c0.124,0.509,0.227,0.994,0.308,1.454
			h0.019c0.074-0.379,0.199-0.86,0.373-1.444l0.643-2.162h0.82l0.615,2.115c0.148,0.516,0.27,1.013,0.363,1.491h0.028
			c0.067-0.466,0.171-0.963,0.308-1.491l0.55-2.115H62.332z"/>
		<path fill="#FFFFFF" d="M67.215,13.372h-1.006v-2.594c0-0.8-0.305-1.2-0.912-1.2c-0.299,0-0.541,0.11-0.728,0.331
			c-0.187,0.22-0.28,0.479-0.28,0.776v2.687h-1.006v-3.234c0-0.398-0.013-0.83-0.037-1.295h0.885l0.047,0.708h0.028
			c0.118-0.22,0.292-0.402,0.521-0.547c0.273-0.169,0.577-0.254,0.913-0.254c0.422,0,0.773,0.137,1.053,0.41
			c0.348,0.335,0.521,0.835,0.521,1.5V13.372z"/>
		<path fill="#FFFFFF" d="M69.658,13.372H68.65V6.764h1.008V13.372z"/>
		<path fill="#FFFFFF" d="M75.25,11.07c0,0.696-0.199,1.268-0.596,1.715c-0.418,0.46-0.971,0.69-1.66,0.69
			c-0.664,0-1.193-0.221-1.588-0.662c-0.396-0.441-0.592-0.998-0.592-1.668c0-0.702,0.203-1.277,0.609-1.724
			s0.955-0.671,1.645-0.671c0.666,0,1.199,0.221,1.604,0.662C75.057,9.84,75.25,10.393,75.25,11.07z M74.205,11.103
			c0-0.417-0.09-0.775-0.27-1.075c-0.211-0.361-0.512-0.542-0.904-0.542c-0.404,0-0.711,0.181-0.922,0.542
			c-0.18,0.299-0.271,0.664-0.271,1.093c0,0.418,0.092,0.776,0.271,1.075c0.217,0.361,0.521,0.542,0.912,0.542
			c0.387,0,0.688-0.184,0.904-0.551C74.113,11.882,74.205,11.52,74.205,11.103z"/>
		<path fill="#FFFFFF" d="M79.789,13.372h-0.904l-0.074-0.522h-0.029c-0.311,0.417-0.752,0.625-1.322,0.625
			c-0.43,0-0.773-0.137-1.035-0.41c-0.236-0.249-0.354-0.556-0.354-0.923c0-0.553,0.23-0.975,0.693-1.267s1.113-0.435,1.953-0.429
			v-0.084c0-0.597-0.312-0.895-0.939-0.895c-0.447,0-0.84,0.112-1.182,0.336l-0.205-0.662c0.422-0.261,0.941-0.391,1.555-0.391
			c1.186,0,1.777,0.625,1.777,1.873v1.668C79.723,12.745,79.744,13.105,79.789,13.372z M78.744,11.815v-0.699
			c-1.111-0.019-1.668,0.286-1.668,0.913c0,0.236,0.064,0.414,0.195,0.531c0.129,0.118,0.293,0.177,0.49,0.177
			c0.223,0,0.428-0.07,0.617-0.209c0.188-0.14,0.305-0.318,0.348-0.536C78.738,11.943,78.744,11.884,78.744,11.815z"/>
		<path fill="#FFFFFF" d="M85.176,13.372h-0.895l-0.047-0.727h-0.029c-0.285,0.553-0.77,0.83-1.453,0.83
			c-0.547,0-1-0.214-1.361-0.643c-0.359-0.429-0.539-0.985-0.539-1.668c0-0.733,0.195-1.326,0.586-1.78
			c0.379-0.423,0.846-0.634,1.398-0.634c0.609,0,1.035,0.205,1.277,0.615h0.018v-2.6h1.008v5.387
			C85.139,12.592,85.15,13,85.176,13.372z M84.131,11.461v-0.755c0-0.13-0.01-0.236-0.027-0.317
			c-0.057-0.242-0.178-0.446-0.365-0.61s-0.412-0.247-0.674-0.247c-0.375,0-0.67,0.149-0.885,0.447s-0.322,0.681-0.322,1.146
			c0,0.447,0.104,0.811,0.309,1.09c0.219,0.298,0.512,0.447,0.879,0.447c0.332,0,0.596-0.124,0.797-0.373
			C84.035,12.061,84.131,11.785,84.131,11.461z"/>
		<path fill="#FFFFFF" d="M92.809,8.843l-1.715,4.529h-0.979l-1.658-4.529h1.08l0.773,2.395c0.131,0.397,0.24,0.78,0.326,1.146
			h0.027c0.076-0.33,0.184-0.711,0.326-1.146l0.766-2.395H92.809z"/>
		<path fill="#FFFFFF" d="M94.84,7.491c0,0.18-0.059,0.326-0.176,0.438c-0.119,0.112-0.271,0.168-0.457,0.168
			c-0.168,0-0.309-0.058-0.424-0.173c-0.115-0.115-0.174-0.259-0.174-0.433s0.061-0.317,0.178-0.429
			c0.119-0.112,0.264-0.168,0.438-0.168s0.32,0.056,0.439,0.168C94.781,7.174,94.84,7.317,94.84,7.491z M94.729,13.372h-1.006V8.843
			h1.006V13.372z"/>
		<path fill="#FFFFFF" d="M99.576,13.372h-0.904l-0.074-0.522h-0.029c-0.311,0.417-0.752,0.625-1.322,0.625
			c-0.43,0-0.773-0.137-1.035-0.41c-0.236-0.249-0.354-0.556-0.354-0.923c0-0.553,0.23-0.975,0.693-1.267s1.113-0.435,1.953-0.429
			v-0.084c0-0.597-0.312-0.895-0.939-0.895c-0.447,0-0.84,0.112-1.182,0.336l-0.205-0.662C96.6,8.88,97.119,8.75,97.732,8.75
			c1.186,0,1.777,0.625,1.777,1.873v1.668C99.51,12.745,99.531,13.105,99.576,13.372z M98.531,11.815v-0.699
			c-1.111-0.019-1.668,0.286-1.668,0.913c0,0.236,0.064,0.414,0.195,0.531c0.129,0.118,0.293,0.177,0.49,0.177
			c0.223,0,0.428-0.07,0.617-0.209c0.188-0.14,0.305-0.318,0.348-0.536C98.525,11.943,98.531,11.884,98.531,11.815z"/>
	</g>
	<g>
		<path fill="#FFFFFF" d="M47.046,19.04c0,0.382-0.125,0.691-0.375,0.928c-0.25,0.237-0.573,0.355-0.968,0.355
			c-0.355,0-0.655-0.122-0.899-0.365s-0.365-0.549-0.365-0.918c0-0.368,0.125-0.671,0.375-0.908c0.25-0.237,0.559-0.355,0.928-0.355
			c0.368,0,0.678,0.118,0.928,0.355C46.921,18.368,47.046,18.671,47.046,19.04z M46.81,31.502h-2.133v-9.599h2.133V31.502z"/>
		<path fill="#FFFFFF" d="M58.284,19.988h-3.812v11.514h-2.133V19.988h-3.792V18.19h9.737V19.988z"/>
		<path fill="#FFFFFF" d="M67.172,31.502h-1.877l-0.117-1.461h-0.041c-0.671,1.119-1.686,1.678-3.041,1.678
			c-0.947,0-1.705-0.296-2.271-0.889c-0.671-0.724-1.007-1.816-1.007-3.278v-5.648h2.134v5.293c0,1.844,0.631,2.765,1.896,2.765
			c0.948,0,1.606-0.461,1.976-1.382c0.092-0.237,0.137-0.507,0.137-0.81v-5.866h2.133v6.833
			C67.092,29.646,67.119,30.567,67.172,31.502z"/>
		<path fill="#FFFFFF" d="M78.391,31.502h-2.133v-5.496c0-1.695-0.646-2.542-1.936-2.542c-0.633,0-1.146,0.233-1.541,0.699
			s-0.594,1.015-0.594,1.646v5.693h-2.133v-6.854c0-0.842-0.025-1.758-0.078-2.745h1.877l0.098,1.501h0.059
			c0.25-0.467,0.619-0.854,1.107-1.158c0.578-0.36,1.225-0.54,1.936-0.54c0.895,0,1.639,0.29,2.23,0.869
			c0.738,0.711,1.107,1.771,1.107,3.18V31.502z"/>
		<path fill="#FFFFFF" d="M89.271,26.248c0,0.383-0.025,0.705-0.078,0.969h-6.4c0.027,0.947,0.336,1.672,0.93,2.172
			c0.539,0.447,1.236,0.672,2.094,0.672c0.947,0,1.809-0.151,2.586-0.455l0.336,1.482c-0.908,0.395-1.982,0.592-3.219,0.592
			c-1.488,0-2.656-0.438-3.506-1.313s-1.273-2.05-1.273-3.525c0-1.448,0.395-2.653,1.186-3.614c0.828-1.027,1.947-1.541,3.357-1.541
			c1.381,0,2.428,0.513,3.139,1.541C88.988,24.043,89.271,25.051,89.271,26.248z M87.238,25.695
			c0.012-0.632-0.127-1.178-0.416-1.639c-0.369-0.593-0.934-0.889-1.697-0.889c-0.699,0-1.266,0.289-1.699,0.869
			c-0.355,0.461-0.566,1.014-0.633,1.658H87.238z"/>
		<path fill="#FFFFFF" d="M97.508,28.744c0,0.893-0.328,1.609-0.986,2.147c-0.66,0.538-1.568,0.808-2.727,0.808
			c-1.094,0-2.021-0.217-2.785-0.651l0.455-1.58c0.736,0.448,1.52,0.671,2.35,0.671c1.094,0,1.639-0.4,1.639-1.204
			c0-0.355-0.117-0.648-0.355-0.879c-0.236-0.23-0.658-0.458-1.264-0.682c-1.711-0.632-2.566-1.554-2.566-2.765
			c0-0.83,0.316-1.521,0.947-2.074c0.633-0.553,1.469-0.829,2.508-0.829c0.949,0,1.758,0.193,2.43,0.58l-0.453,1.533
			c-0.619-0.368-1.271-0.554-1.957-0.554c-0.447,0-0.797,0.105-1.045,0.316c-0.252,0.209-0.377,0.479-0.377,0.807
			c0,0.329,0.133,0.599,0.396,0.809c0.223,0.197,0.658,0.414,1.303,0.65C96.678,26.479,97.508,27.443,97.508,28.744z"/>
	</g>
</g>
</svg>
