<?xml version="1.0" encoding="utf-8"?>
<!-- Generator: Adobe Illustrator 15.0.2, SVG Export Plug-In . SVG Version: 6.00 Build 0)  -->
<!DOCTYPE svg PUBLIC "-//W3C//DTD SVG 1.1//EN" "http://www.w3.org/Graphics/SVG/1.1/DTD/svg11.dtd">
<svg version="1.1" id="Layer_1" xmlns="http://www.w3.org/2000/svg" xmlns:xlink="http://www.w3.org/1999/xlink" x="0px" y="0px"
	 width="110px" height="40px" viewBox="0 0 110 40" enable-background="new 0 0 110 40" xml:space="preserve">
<g>
	<path fill="#A6A6A6" d="M105.27,40H4.729C2.122,40,0,37.883,0,35.277V4.726C0,2.12,2.122,0,4.729,0H105.27
		c2.604,0,4.729,2.12,4.729,4.726v30.551C110,37.883,107.876,40,105.27,40L105.27,40z"/>
	<path d="M109,35.277c0,2.117-1.609,3.723-3.73,3.723H4.729C2.61,39,1,37.395,1,35.277V4.726C1,2.61,2.61,1,4.729,1H105.27
		c2.121,0,3.729,1.61,3.729,3.726L109,35.277L109,35.277z"/>
	<path fill="#FFFFFF" d="M30.205,19.728c-0.03-3.223,2.65-4.791,2.773-4.864c-1.518-2.204-3.871-2.505-4.696-2.529
		c-1.977-0.207-3.892,1.178-4.899,1.178c-1.026,0-2.576-1.157-4.246-1.124c-2.148,0.034-4.16,1.272-5.263,3.196
		c-2.276,3.923-0.578,9.688,1.602,12.856c1.09,1.558,2.365,3.289,4.033,3.228c1.632-0.063,2.241-1.035,4.211-1.035
		c1.951,0,2.524,1.035,4.225,0.996c1.752-0.024,2.855-1.56,3.907-3.125c1.261-1.78,1.767-3.532,1.787-3.623
		C33.599,24.867,30.238,23.592,30.205,19.728z"/>
	<path fill="#FFFFFF" d="M26.99,10.25c0.877-1.093,1.479-2.58,1.312-4.089c-1.271,0.056-2.859,0.875-3.774,1.945
		c-0.809,0.942-1.533,2.486-1.346,3.938C24.608,12.149,26.074,11.327,26.99,10.25z"/>
	
		<linearGradient id="SVGID_1_" gradientUnits="userSpaceOnUse" x1="82.5137" y1="0.8911" x2="82.5137" y2="36.9477" gradientTransform="matrix(1 0 0 -1 0 41)">
		<stop  offset="0" style="stop-color:#1A1A1A;stop-opacity:0.1"/>
		<stop  offset="0.1235" style="stop-color:#212121;stop-opacity:0.1506"/>
		<stop  offset="0.3085" style="stop-color:#353535;stop-opacity:0.2265"/>
		<stop  offset="0.5321" style="stop-color:#575757;stop-opacity:0.3181"/>
		<stop  offset="0.7834" style="stop-color:#858585;stop-opacity:0.4212"/>
		<stop  offset="1" style="stop-color:#B3B3B3;stop-opacity:0.51"/>
	</linearGradient>
	<path fill="url(#SVGID_1_)" d="M105.27,0H55.026L81.35,40h23.92c2.605,0,4.73-2.117,4.73-4.721V4.726C110,2.121,107.875,0,105.27,0
		z"/>
	<g>
		<path fill="#FFFFFF" d="M47.036,7.542c0,0.382-0.125,0.691-0.375,0.929c-0.25,0.236-0.572,0.354-0.968,0.354
			c-0.355,0-0.654-0.121-0.898-0.365c-0.243-0.243-0.365-0.549-0.365-0.918c0-0.368,0.125-0.671,0.375-0.908
			c0.25-0.236,0.56-0.355,0.929-0.355c0.368,0,0.678,0.119,0.928,0.355C46.911,6.871,47.036,7.173,47.036,7.542z M46.799,20h-2.132
			v-9.596h2.132V20z"/>
		<path fill="#FFFFFF" d="M58.311,8.49H54.48V20h-2.133V8.49h-3.791V6.693h9.754V8.49z"/>
		<path fill="#FFFFFF" d="M67.154,20h-1.875l-0.118-1.461h-0.039c-0.671,1.119-1.685,1.678-3.041,1.678
			c-0.947,0-1.704-0.296-2.271-0.888c-0.672-0.725-1.008-1.816-1.008-3.278v-5.646h2.133v5.291c0,1.844,0.633,2.765,1.896,2.765
			c0.947,0,1.605-0.461,1.975-1.382c0.092-0.237,0.139-0.507,0.139-0.81v-5.864h2.133v6.831C67.077,18.144,67.104,19.066,67.154,20z
			"/>
		<path fill="#FFFFFF" d="M78.409,20h-2.132v-5.509c0-1.698-0.646-2.547-1.937-2.547c-0.632,0-1.146,0.233-1.54,0.701
			c-0.395,0.467-0.592,1.017-0.592,1.648V20h-2.133v-6.852c0-0.842-0.026-1.757-0.079-2.744h1.876l0.1,1.48h0.06
			c0.25-0.46,0.618-0.842,1.104-1.145c0.579-0.355,1.225-0.533,1.936-0.533c0.896,0,1.639,0.289,2.23,0.868
			c0.737,0.711,1.105,1.771,1.105,3.179L78.409,20L78.409,20z"/>
		<path fill="#FFFFFF" d="M89.27,14.749c0,0.382-0.026,0.704-0.08,0.968h-6.396c0.024,0.947,0.335,1.672,0.929,2.172
			c0.539,0.447,1.236,0.671,2.092,0.671c0.947,0,1.811-0.151,2.588-0.454l0.334,1.48c-0.907,0.396-1.98,0.593-3.217,0.593
			c-1.488,0-2.656-0.438-3.506-1.313c-0.849-0.875-1.272-2.05-1.272-3.523c0-1.448,0.395-2.652,1.185-3.613
			c0.829-1.027,1.948-1.54,3.356-1.54c1.382,0,2.429,0.513,3.14,1.54C88.984,12.543,89.27,13.551,89.27,14.749z M87.234,14.196
			c0.014-0.632-0.125-1.178-0.414-1.639c-0.368-0.593-0.936-0.889-1.698-0.889c-0.697,0-1.265,0.29-1.697,0.869
			c-0.354,0.46-0.565,1.014-0.632,1.658L87.234,14.196L87.234,14.196z"/>
		<path fill="#FFFFFF" d="M97.542,17.236c0,0.896-0.329,1.613-0.987,2.152c-0.658,0.54-1.566,0.81-2.725,0.81
			c-1.094,0-2.021-0.217-2.784-0.651l0.454-1.579c0.736,0.447,1.521,0.671,2.35,0.671c1.092,0,1.639-0.401,1.639-1.204
			c0-0.355-0.117-0.648-0.354-0.879s-0.657-0.457-1.264-0.682c-1.711-0.632-2.565-1.553-2.565-2.764
			c0-0.829,0.314-1.521,0.946-2.073c0.632-0.552,1.468-0.829,2.508-0.829c0.947,0,1.757,0.19,2.429,0.572l-0.455,1.52
			c-0.619-0.368-1.271-0.553-1.955-0.553c-0.447,0-0.797,0.105-1.047,0.315c-0.25,0.211-0.375,0.48-0.375,0.81s0.131,0.6,0.396,0.81
			c0.224,0.197,0.658,0.415,1.304,0.651C96.712,14.965,97.542,15.933,97.542,17.236z"/>
	</g>
	<g>
		<path fill="#FFFFFF" d="M45.558,27.105c0.119-0.551,0.209-1.116,0.269-1.683l0.841,0.097c-0.066,0.515-0.163,1.021-0.275,1.526
			c0.112-0.008,0.216-0.008,0.306-0.008c1.117,0,1.616,0.544,1.616,1.713s-0.201,2.122-0.477,2.584
			c-0.238,0.401-0.537,0.56-1.043,0.56c-0.365,0-0.774-0.054-1.095-0.127l0.052-0.789c0.283,0.097,0.618,0.142,0.872,0.142
			c0.253,0,0.357-0.037,0.483-0.209c0.231-0.327,0.373-1.109,0.373-2.122c0-0.768-0.217-0.99-0.827-0.99
			c-0.142,0-0.29,0.008-0.446,0.016c-0.402,1.488-0.953,2.858-1.608,3.819l-0.745-0.401c0.626-0.834,1.146-2.019,1.512-3.336
			c-0.469,0.052-0.961,0.134-1.407,0.23l-0.149-0.782C44.337,27.248,44.978,27.158,45.558,27.105z M50.555,29.697l-0.842,0.217
			c-0.111-0.977-0.536-2.102-1.333-2.904l0.692-0.432C49.937,27.471,50.436,28.76,50.555,29.697z"/>
		<path fill="#FFFFFF" d="M52.346,29.146c0.715-0.484,1.586-0.797,2.338-0.797c1.162,0,1.869,0.604,1.869,1.563
			c0,1.229-0.96,1.979-3.268,1.979c-0.119,0-0.298,0-0.439-0.008l-0.172-0.797c0.224,0.016,0.521,0.021,0.7,0.021
			c1.676,0,2.315-0.469,2.315-1.176c0-0.552-0.364-0.879-1.176-0.879c-0.73,0-1.542,0.401-2.354,1.153l-0.678-0.297
			c0-1.653,0.164-2.421,0.73-3.255l0.781,0.261C52.48,27.628,52.346,28.283,52.346,29.146z M52.056,26.176l0.208-0.773
			c1.072,0.156,2.636,0.498,3.41,0.767l-0.224,0.782C54.774,26.682,53.113,26.302,52.056,26.176z"/>
		<path fill="#FFFFFF" d="M59.564,27.97c0.492,0.276,1.102,0.687,1.563,1.021c0.396-0.597,0.654-1.259,0.789-1.906h-2.16
			c-0.534,0.842-1.229,1.66-1.891,2.188l-0.664-0.551c1.034-0.744,2.041-2.197,2.459-3.307l0.834,0.275
			c-0.082,0.192-0.181,0.401-0.291,0.617h2.166l0.618,0.344c-0.545,2.435-1.93,4.445-4.079,5.287l-0.597-0.715
			c0.931-0.32,1.705-0.88,2.301-1.55c-0.477-0.38-1.108-0.805-1.586-1.071L59.564,27.97z M62.371,25.17
			c0.307,0.307,0.514,0.566,0.752,0.938l-0.416,0.307c-0.223-0.357-0.439-0.648-0.738-0.938L62.371,25.17z M63.406,24.969
			c0.307,0.307,0.508,0.581,0.73,0.961l-0.433,0.291c-0.209-0.38-0.427-0.656-0.716-0.953L63.406,24.969z"/>
		<path fill="#FFFFFF" d="M67,26.682v-1.25h0.9v1.25h1.742l0.729,0.312c-0.192,2.294-1.097,4.066-3.472,4.93l-0.534-0.767
			c2.12-0.708,2.881-2.077,2.991-3.656h-3.641v1.601h-0.895v-2.42H67z"/>
		<path fill="#FFFFFF" d="M73.98,27.345l-0.582,0.722c-0.416-0.371-1.281-0.989-1.898-1.316l0.543-0.715
			C72.691,26.406,73.51,26.957,73.98,27.345z M76.697,27.359l0.574,0.662c-1.035,1.66-3.129,3.209-5.131,3.828l-0.455-0.843
			C73.66,30.51,75.691,29.02,76.697,27.359z"/>
		<path fill="#FFFFFF" d="M83.887,26.361v5.086h-5.436v-5.086H83.887z M82.986,30.605v-3.418h-3.648v3.418H82.986z"/>
		<path fill="#FFFFFF" d="M91.367,28.225v0.899h-6.092v-0.899H91.367z"/>
		<path fill="#FFFFFF" d="M97.334,29.311l-0.572,0.729c-0.76-0.565-1.803-1.161-2.74-1.616v3.471H93.12v-6.463h0.901v2.039
			C95.086,27.955,96.389,28.67,97.334,29.311z M95.607,26.258c0.238,0.26,0.49,0.604,0.678,0.924l-0.402,0.26
			c-0.164-0.306-0.432-0.678-0.662-0.924L95.607,26.258z M96.396,25.759c0.246,0.261,0.506,0.603,0.699,0.923l-0.402,0.262
			c-0.162-0.299-0.439-0.67-0.678-0.916L96.396,25.759z"/>
	</g>
</g>
</svg>
