<?xml version="1.0" encoding="utf-8"?>
<!-- Generator: Adobe Illustrator 16.2.1, SVG Export Plug-In . SVG Version: 6.00 Build 0)  -->
<!DOCTYPE svg PUBLIC "-//W3C//DTD SVG 1.1//EN" "http://www.w3.org/Graphics/SVG/1.1/DTD/svg11.dtd">
<svg version="1.1" id="Livetype" xmlns="http://www.w3.org/2000/svg" xmlns:xlink="http://www.w3.org/1999/xlink" x="0px" y="0px"
	 width="110px" height="40px" viewBox="0 0 110 40" enable-background="new 0 0 110 40" xml:space="preserve">
<g>
	<path fill="#A6A6A6" d="M103.371,0H6.625c-0.254,0-0.506,0-0.76,0.001C5.652,0.002,5.443,0.005,5.23,0.01
		c-0.466,0.016-0.934,0.04-1.395,0.125c-0.467,0.082-0.9,0.22-1.32,0.435C2.098,0.783,1.721,1.057,1.385,1.386
		C1.056,1.721,0.783,2.098,0.57,2.518C0.355,2.936,0.217,3.369,0.135,3.837C0.049,4.297,0.025,4.766,0.009,5.23
		C0.004,5.444,0.002,5.652,0.001,5.865C0,6.119,0,6.371,0,6.625v26.754c0,0.248,0,0.506,0.001,0.756
		c0.001,0.211,0.003,0.426,0.008,0.639c0.017,0.471,0.04,0.934,0.126,1.389c0.082,0.473,0.221,0.906,0.436,1.33
		c0.213,0.408,0.485,0.799,0.814,1.121c0.336,0.334,0.713,0.613,1.131,0.824c0.42,0.217,0.854,0.344,1.32,0.438
		c0.461,0.08,0.929,0.105,1.395,0.115c0.213,0.004,0.422,0.006,0.635,0.008C6.119,40,6.371,40,6.625,40h96.746
		c0.252,0,0.506,0,0.76-0.002c0.211-0.002,0.426-0.004,0.641-0.008c0.463-0.01,0.932-0.035,1.393-0.115
		c0.461-0.094,0.895-0.221,1.32-0.438c0.42-0.211,0.797-0.49,1.127-0.824c0.328-0.322,0.607-0.713,0.818-1.121
		c0.217-0.424,0.354-0.857,0.436-1.33c0.082-0.455,0.111-0.918,0.123-1.389c0.008-0.213,0.01-0.428,0.01-0.639
		C110,33.885,110,33.627,110,33.379V6.625c0-0.254,0-0.506-0.002-0.76c0-0.213-0.002-0.421-0.01-0.635
		c-0.012-0.465-0.041-0.934-0.123-1.394c-0.082-0.468-0.219-0.901-0.436-1.319c-0.211-0.42-0.49-0.797-0.818-1.132
		c-0.33-0.329-0.707-0.603-1.127-0.815c-0.426-0.215-0.859-0.354-1.32-0.435c-0.461-0.086-0.93-0.11-1.393-0.125
		c-0.215-0.005-0.43-0.007-0.641-0.008C103.877,0,103.623,0,103.371,0L103.371,0z"/>
	<path d="M103.371,0.985l0.752,0.001c0.207,0.002,0.416,0.004,0.619,0.014c0.379,0.008,0.818,0.026,1.246,0.107
		c0.395,0.071,0.727,0.18,1.051,0.342c0.32,0.166,0.615,0.381,0.875,0.638c0.258,0.258,0.473,0.552,0.639,0.876
		c0.162,0.322,0.271,0.654,0.342,1.051c0.076,0.423,0.096,0.864,0.105,1.24c0.006,0.207,0.008,0.414,0.008,0.624
		c0.002,0.251,0.002,0.496,0.002,0.747v26.754c0,0.246,0,0.502-0.002,0.75c0,0.207-0.002,0.416-0.008,0.621
		c-0.01,0.377-0.029,0.818-0.105,1.244c-0.07,0.387-0.18,0.725-0.342,1.053c-0.166,0.318-0.381,0.613-0.639,0.875
		c-0.26,0.254-0.555,0.467-0.877,0.627c-0.322,0.174-0.654,0.277-1.047,0.35c-0.434,0.074-0.893,0.104-1.244,0.111
		c-0.205,0.004-0.412,0.006-0.623,0.008c-0.25,0.002-0.502,0.002-0.752,0.002H6.625c-0.003,0-0.006,0-0.008,0
		c-0.248,0-0.497,0-0.748-0.002c-0.203-0.002-0.412-0.004-0.617-0.008c-0.348-0.008-0.81-0.037-1.24-0.111
		c-0.395-0.072-0.727-0.176-1.051-0.35c-0.323-0.16-0.617-0.373-0.875-0.627c-0.256-0.262-0.471-0.557-0.638-0.875
		c-0.161-0.328-0.271-0.666-0.341-1.055c-0.082-0.426-0.1-0.865-0.108-1.242c-0.01-0.207-0.012-0.416-0.013-0.621l-0.001-0.6v-0.15
		V6.625v-0.15l0.001-0.598c0.001-0.208,0.003-0.416,0.013-0.624c0.009-0.374,0.026-0.814,0.108-1.241
		c0.07-0.395,0.18-0.727,0.342-1.05C1.615,2.639,1.83,2.345,2.087,2.088C2.344,1.83,2.638,1.615,2.961,1.449
		c0.323-0.162,0.656-0.271,1.051-0.342C4.438,1.026,4.879,1.008,5.253,1c0.208-0.01,0.415-0.012,0.623-0.014l0.749-0.001H103.371"/>
	<g>
		<g>
			<g>
				<path fill="#FFFFFF" d="M30.128,19.783c-0.029-3.223,2.639-4.791,2.761-4.863c-1.511-2.203-3.854-2.505-4.676-2.528
					c-1.967-0.206-3.875,1.177-4.877,1.177c-1.021,0-2.565-1.156-4.228-1.122c-2.14,0.033-4.142,1.272-5.24,3.196
					c-2.266,3.922-0.575,9.688,1.595,12.857c1.086,1.553,2.355,3.287,4.016,3.227c1.625-0.068,2.232-1.037,4.193-1.037
					c1.943,0,2.513,1.037,4.207,0.998c1.744-0.029,2.842-1.561,3.891-3.127c1.254-1.781,1.758-3.533,1.778-3.623
					C33.508,24.924,30.161,23.646,30.128,19.783z"/>
				<path fill="#FFFFFF" d="M26.928,10.307c0.873-1.094,1.472-2.58,1.306-4.09c-1.265,0.057-2.847,0.875-3.758,1.944
					c-0.806,0.942-1.526,2.486-1.34,3.938C24.557,12.205,26.016,11.383,26.928,10.307z"/>
			</g>
		</g>
		<g>
			<path fill="#FFFFFF" d="M49.733,30.622h-1.15l-0.63-1.979h-2.19l-0.6,1.979h-1.12l2.17-6.74h1.34L49.733,30.622z M47.763,27.812
				l-0.57-1.76c-0.06-0.181-0.173-0.604-0.34-1.271h-0.02c-0.066,0.286-0.173,0.71-0.32,1.271l-0.56,1.76H47.763z"/>
			<path fill="#FFFFFF" d="M52.133,30.622h-1.08v-7.09h1.08V30.622z"/>
			<path fill="#FFFFFF" d="M54.973,30.622h-1.08v-4.86h1.08V30.622z"/>
			<path fill="#FFFFFF" d="M60.953,30.622h-1.08v-2.783c0-0.858-0.326-1.286-0.98-1.286c-0.319,0-0.58,0.117-0.779,0.354
				c-0.2,0.236-0.301,0.514-0.301,0.833v2.883h-1.079v-3.47c0-0.427-0.014-0.891-0.04-1.391h0.949l0.051,0.76h0.029
				c0.127-0.236,0.314-0.432,0.561-0.586c0.293-0.183,0.62-0.273,0.98-0.273c0.453,0,0.83,0.146,1.129,0.439
				c0.374,0.36,0.561,0.897,0.561,1.61V30.622z"/>
		</g>
		<g>
			<path fill="#FFFFFF" d="M45.657,10.141c0,0.256-0.084,0.464-0.252,0.623c-0.168,0.159-0.384,0.238-0.649,0.238
				c-0.238,0-0.439-0.082-0.603-0.245c-0.164-0.164-0.245-0.369-0.245-0.616c0-0.247,0.083-0.45,0.251-0.609
				s0.375-0.239,0.623-0.239c0.247,0,0.455,0.08,0.623,0.239C45.573,9.691,45.657,9.894,45.657,10.141z M45.498,18.502h-1.431
				v-6.439h1.431V18.502z"/>
			<path fill="#FFFFFF" d="M52.998,10.777H50.44v7.725h-1.431v-7.725h-2.544V9.571h6.532V10.777z"/>
			<path fill="#FFFFFF" d="M58.88,18.502h-1.259l-0.079-0.98h-0.026c-0.451,0.751-1.131,1.126-2.041,1.126
				c-0.636,0-1.144-0.199-1.523-0.596c-0.451-0.485-0.676-1.219-0.676-2.199v-3.79h1.431v3.551c0,1.237,0.424,1.855,1.272,1.855
				c0.636,0,1.078-0.309,1.324-0.927c0.062-0.159,0.094-0.34,0.094-0.543v-3.935h1.431v4.584
				C58.827,17.256,58.845,17.875,58.88,18.502z"/>
			<path fill="#FFFFFF" d="M66.221,18.502h-1.432v-3.688c0-1.137-0.433-1.705-1.298-1.705c-0.425,0-0.769,0.156-1.034,0.469
				c-0.265,0.313-0.396,0.681-0.396,1.104v3.82h-1.432v-4.598c0-0.565-0.018-1.179-0.053-1.842h1.259l0.065,1.006h0.041
				c0.167-0.312,0.414-0.572,0.741-0.777c0.389-0.241,0.821-0.362,1.299-0.362c0.601,0,1.099,0.194,1.497,0.583
				c0.494,0.477,0.742,1.188,0.742,2.133V18.502z"/>
			<path fill="#FFFFFF" d="M73.297,14.978c0,0.256-0.018,0.473-0.053,0.649h-4.293c0.018,0.636,0.225,1.122,0.622,1.458
				c0.362,0.301,0.83,0.451,1.404,0.451c0.637,0,1.215-0.102,1.736-0.305l0.225,0.994c-0.609,0.265-1.329,0.397-2.159,0.397
				c-0.998,0-1.782-0.293-2.352-0.881c-0.57-0.587-0.855-1.376-0.855-2.365c0-0.972,0.266-1.78,0.796-2.425
				c0.556-0.689,1.307-1.034,2.252-1.034c0.928,0,1.63,0.345,2.106,1.034C73.106,13.498,73.297,14.174,73.297,14.978z
				 M71.932,14.606c0.009-0.424-0.084-0.791-0.278-1.1c-0.247-0.397-0.627-0.596-1.139-0.596c-0.469,0-0.849,0.194-1.14,0.583
				c-0.239,0.309-0.38,0.68-0.424,1.113H71.932z"/>
			<path fill="#FFFFFF" d="M78.569,16.651c0,0.6-0.221,1.08-0.662,1.441c-0.441,0.362-1.052,0.542-1.828,0.542
				c-0.733,0-1.356-0.146-1.869-0.437l0.306-1.06c0.494,0.3,1.02,0.451,1.576,0.451c0.733,0,1.1-0.27,1.1-0.809
				c0-0.238-0.079-0.435-0.238-0.589c-0.159-0.155-0.441-0.307-0.848-0.457c-1.148-0.424-1.723-1.042-1.723-1.855
				c0-0.557,0.212-1.021,0.636-1.392s0.985-0.556,1.683-0.556c0.636,0,1.18,0.129,1.63,0.389l-0.305,1.028
				c-0.415-0.247-0.853-0.371-1.312-0.371c-0.301,0-0.535,0.071-0.702,0.212c-0.168,0.141-0.252,0.321-0.252,0.542
				c0,0.221,0.088,0.401,0.265,0.542c0.15,0.132,0.441,0.278,0.875,0.437C78.013,15.131,78.569,15.779,78.569,16.651z"/>
			<path fill="#FFFFFF" d="M81.696,9.333c-0.38,1.334-0.83,2.429-1.352,3.286l-0.888,0.093c0.389-1.06,0.667-2.142,0.835-3.247
				L81.696,9.333z"/>
			<path fill="#FFFFFF" d="M87.963,18.502H86.69l-0.065-1.034h-0.04c-0.406,0.787-1.096,1.179-2.067,1.179
				c-0.777,0-1.422-0.305-1.935-0.914c-0.512-0.609-0.769-1.4-0.769-2.372c0-1.042,0.278-1.886,0.835-2.531
				c0.539-0.601,1.201-0.901,1.987-0.901c0.866,0,1.471,0.292,1.815,0.875h0.026V9.108h1.432v7.658
				C87.91,17.394,87.928,17.972,87.963,18.502z M86.479,15.786v-1.073c0-0.186-0.013-0.335-0.04-0.451
				c-0.079-0.344-0.252-0.633-0.519-0.868c-0.266-0.234-0.585-0.351-0.958-0.351c-0.532,0-0.951,0.212-1.257,0.636
				c-0.307,0.424-0.459,0.967-0.459,1.63c0,0.636,0.146,1.153,0.438,1.55c0.311,0.424,0.728,0.636,1.251,0.636
				c0.47,0,0.847-0.177,1.131-0.53C86.342,16.638,86.479,16.245,86.479,15.786z"/>
			<path fill="#FFFFFF" d="M94.534,18.502h-1.285l-0.105-0.742h-0.04c-0.441,0.592-1.069,0.888-1.882,0.888
				c-0.609,0-1.1-0.194-1.471-0.583c-0.336-0.354-0.503-0.791-0.503-1.312c0-0.786,0.329-1.387,0.987-1.802
				c0.657-0.416,1.583-0.619,2.775-0.61v-0.119c0-0.848-0.445-1.272-1.335-1.272c-0.635,0-1.194,0.159-1.679,0.477l-0.292-0.941
				c0.6-0.371,1.337-0.556,2.21-0.556c1.685,0,2.526,0.888,2.526,2.663v2.372C94.441,17.61,94.473,18.122,94.534,18.502z
				 M93.051,16.289v-0.994c-1.581-0.026-2.372,0.406-2.372,1.298c0,0.336,0.092,0.588,0.276,0.755
				c0.185,0.168,0.418,0.252,0.698,0.252c0.316,0,0.608-0.1,0.877-0.298c0.268-0.199,0.433-0.453,0.494-0.762
				C93.042,16.47,93.051,16.387,93.051,16.289z"/>
			<path fill="#FFFFFF" d="M101.795,18.502h-1.431v-3.688c0-1.137-0.433-1.705-1.299-1.705c-0.424,0-0.769,0.156-1.033,0.469
				s-0.397,0.681-0.397,1.104v3.82h-1.431v-4.598c0-0.565-0.019-1.179-0.054-1.842h1.259l0.066,1.006h0.04
				c0.168-0.312,0.415-0.572,0.742-0.777c0.389-0.241,0.821-0.362,1.298-0.362c0.601,0,1.1,0.194,1.498,0.583
				c0.494,0.477,0.741,1.188,0.741,2.133V18.502z"/>
		</g>
	</g>
</g>
</svg>
