<?xml version="1.0" encoding="utf-8"?>
<!-- Generator: Adobe Illustrator 15.1.0, SVG Export Plug-In . SVG Version: 6.00 Build 0)  -->
<!DOCTYPE svg PUBLIC "-//W3C//DTD SVG 1.1//EN" "http://www.w3.org/Graphics/SVG/1.1/DTD/svg11.dtd">
<svg version="1.1" id="Layer_1" xmlns="http://www.w3.org/2000/svg" xmlns:xlink="http://www.w3.org/1999/xlink" x="0px" y="0px"
	 width="110px" height="40px" viewBox="0 0 110 40" enable-background="new 0 0 110 40" xml:space="preserve">
<g>
	<path fill="#A6A6A6" d="M105.27,40H4.729C2.122,40,0,37.882,0,35.277V4.726C0,2.12,2.122,0,4.729,0H105.27
		c2.604,0,4.729,2.12,4.729,4.726v30.551C109.998,37.882,107.875,40,105.27,40L105.27,40z"/>
	<path d="M109.104,35.277c0,2.117-1.713,3.83-3.834,3.83H4.729c-2.119,0-3.839-1.713-3.839-3.83V4.726
		c0-2.116,1.72-3.836,3.839-3.836H105.27c2.121,0,3.834,1.72,3.834,3.836V35.277z"/>
	<path fill="#FFFFFF" d="M30.205,19.728c-0.03-3.223,2.65-4.791,2.773-4.864c-1.518-2.204-3.871-2.505-4.696-2.529
		c-1.977-0.207-3.892,1.178-4.899,1.178c-1.026,0-2.576-1.157-4.246-1.124c-2.148,0.034-4.16,1.272-5.263,3.196
		c-2.276,3.923-0.578,9.69,1.602,12.858c1.09,1.556,2.365,3.287,4.033,3.227c1.632-0.064,2.241-1.036,4.211-1.036
		c1.951,0,2.524,1.036,4.225,0.997c1.752-0.025,2.855-1.559,3.907-3.126c1.261-1.78,1.767-3.532,1.787-3.623
		C33.599,24.867,30.238,23.592,30.205,19.728z"/>
	<path fill="#FFFFFF" d="M26.99,10.25c0.877-1.093,1.479-2.58,1.312-4.089c-1.271,0.056-2.859,0.875-3.774,1.945
		c-0.809,0.942-1.533,2.486-1.346,3.938C24.608,12.149,26.074,11.327,26.99,10.25z"/>
	
		<linearGradient id="SVGID_1_" gradientUnits="userSpaceOnUse" x1="-7.4878" y1="216.8896" x2="-7.4878" y2="252.9462" gradientTransform="matrix(1 0 0 -1 90 257)">
		<stop  offset="0" style="stop-color:#1A1A1A;stop-opacity:0.1"/>
		<stop  offset="0.1235" style="stop-color:#212121;stop-opacity:0.1506"/>
		<stop  offset="0.3085" style="stop-color:#353535;stop-opacity:0.2265"/>
		<stop  offset="0.5321" style="stop-color:#575757;stop-opacity:0.3181"/>
		<stop  offset="0.7834" style="stop-color:#858585;stop-opacity:0.4212"/>
		<stop  offset="1" style="stop-color:#B3B3B3;stop-opacity:0.51"/>
	</linearGradient>
	<path fill="url(#SVGID_1_)" d="M105.27,0H55.026L81.35,40h23.92c2.604,0,4.729-2.117,4.729-4.723V4.726
		C110,2.121,107.875,0,105.27,0z"/>
	<g>
		<path fill="#FFFFFF" d="M47.036,19.039c0,0.382-0.125,0.691-0.375,0.929c-0.25,0.236-0.572,0.354-0.968,0.354
			c-0.355,0-0.654-0.121-0.898-0.365c-0.243-0.243-0.365-0.549-0.365-0.918c0-0.368,0.125-0.671,0.375-0.908
			c0.25-0.236,0.56-0.355,0.929-0.355c0.368,0,0.678,0.119,0.928,0.355C46.911,18.368,47.036,18.67,47.036,19.039z M46.799,31.498
			h-2.132v-9.596h2.132V31.498z"/>
		<path fill="#FFFFFF" d="M58.291,19.987H54.46v11.511h-2.133V19.987h-3.791V18.19h9.754L58.291,19.987L58.291,19.987z"/>
		<path fill="#FFFFFF" d="M67.134,31.498h-1.875l-0.118-1.461h-0.039c-0.67,1.119-1.685,1.678-3.041,1.678
			c-0.947,0-1.703-0.296-2.271-0.888c-0.672-0.726-1.008-1.816-1.008-3.278v-5.646h2.133v5.291c0,1.845,0.633,2.766,1.896,2.766
			c0.947,0,1.605-0.461,1.976-1.382c0.092-0.237,0.137-0.507,0.137-0.81v-5.865h2.134v6.832
			C67.057,29.641,67.082,30.562,67.134,31.498z"/>
		<path fill="#FFFFFF" d="M78.391,31.498h-2.134v-5.509c0-1.698-0.646-2.548-1.937-2.548c-0.631,0-1.145,0.233-1.538,0.701
			c-0.396,0.467-0.593,1.018-0.593,1.648v5.706h-2.133v-6.853c0-0.842-0.027-1.756-0.08-2.744h1.877l0.099,1.48h0.062
			c0.25-0.46,0.616-0.842,1.104-1.145c0.577-0.355,1.223-0.533,1.934-0.533c0.896,0,1.64,0.289,2.232,0.867
			c0.735,0.712,1.104,1.771,1.104,3.18v5.748H78.391z"/>
		<path fill="#FFFFFF" d="M89.208,26.246c0,0.382-0.024,0.704-0.078,0.968h-6.396c0.024,0.947,0.334,1.672,0.928,2.172
			c0.539,0.447,1.236,0.671,2.092,0.671c0.947,0,1.811-0.15,2.588-0.453l0.334,1.479c-0.908,0.396-1.98,0.593-3.217,0.593
			c-1.488,0-2.656-0.438-3.506-1.312c-0.848-0.875-1.273-2.051-1.273-3.523c0-1.447,0.396-2.652,1.187-3.613
			c0.827-1.026,1.946-1.539,3.354-1.539c1.383,0,2.43,0.513,3.141,1.539C88.925,24.041,89.208,25.048,89.208,26.246z M87.175,25.693
			c0.015-0.633-0.125-1.178-0.413-1.639c-0.369-0.594-0.937-0.89-1.699-0.89c-0.697,0-1.265,0.29-1.697,0.869
			c-0.355,0.46-0.566,1.014-0.631,1.657h4.44V25.693z"/>
		<path fill="#FFFFFF" d="M97.365,28.732c0,0.896-0.33,1.613-0.988,2.152c-0.658,0.54-1.566,0.811-2.725,0.811
			c-1.092,0-2.021-0.217-2.783-0.651l0.453-1.579c0.738,0.447,1.521,0.671,2.35,0.671c1.092,0,1.639-0.401,1.639-1.204
			c0-0.354-0.117-0.647-0.354-0.879c-0.235-0.229-0.658-0.457-1.265-0.682c-1.711-0.632-2.565-1.553-2.565-2.764
			c0-0.83,0.315-1.521,0.947-2.073c0.633-0.554,1.469-0.829,2.508-0.829c0.946,0,1.758,0.189,2.431,0.572l-0.455,1.521
			c-0.619-0.368-1.271-0.553-1.955-0.553c-0.447,0-0.797,0.104-1.045,0.315c-0.252,0.211-0.377,0.479-0.377,0.81
			s0.133,0.6,0.396,0.81c0.223,0.197,0.657,0.415,1.303,0.651C96.535,26.462,97.365,27.43,97.365,28.732z"/>
	</g>
	<g>
		<path fill="#FFFFFF" d="M48.125,8.531h-1.602v4.84h-0.904v-4.84h-1.594V7.776h4.1V8.531z"/>
		<path fill="#FFFFFF" d="M51.686,11.57h-2.689c0.017,0.764,0.522,1.195,1.271,1.195c0.398,0,0.764-0.066,1.087-0.191l0.142,0.623
			c-0.383,0.166-0.83,0.248-1.354,0.248c-1.262,0-2.009-0.797-2.009-2.033c0-1.236,0.764-2.166,1.909-2.166
			c1.029,0,1.677,0.764,1.677,1.917C51.719,11.32,51.71,11.461,51.686,11.57z M50.865,10.93c0-0.622-0.316-1.062-0.889-1.062
			c-0.515,0-0.922,0.448-0.979,1.062H50.865z M51.23,7.643l-1.005,1.204h-0.622l0.722-1.204H51.23z"/>
		<path fill="#FFFFFF" d="M53.454,13.371h-0.896V7.486h0.896V13.371z"/>
		<path fill="#FFFFFF" d="M57.869,11.57H55.18c0.017,0.764,0.523,1.195,1.27,1.195c0.397,0,0.764-0.066,1.088-0.191l0.142,0.623
			c-0.382,0.166-0.83,0.248-1.354,0.248c-1.262,0-2.009-0.797-2.009-2.033c0-1.236,0.764-2.166,1.91-2.166
			c1.028,0,1.676,0.764,1.676,1.917C57.902,11.32,57.895,11.461,57.869,11.57z M57.046,10.93c0-0.622-0.313-1.062-0.888-1.062
			c-0.516,0-0.921,0.448-0.979,1.062H57.046z M57.412,7.643l-1.004,1.204h-0.623l0.723-1.204H57.412z"/>
		<path fill="#FFFFFF" d="M61.445,10.125c-0.223-0.107-0.488-0.166-0.779-0.166c-0.789,0-1.277,0.59-1.277,1.395
			c0,0.855,0.539,1.387,1.277,1.387c0.273,0,0.548-0.059,0.812-0.166l0.125,0.672c-0.291,0.142-0.664,0.208-1.111,0.208
			c-1.237,0-2.018-0.813-2.018-2.059s0.854-2.142,2.174-2.142c0.375,0,0.697,0.066,0.973,0.191L61.445,10.125z"/>
		<path fill="#FFFFFF" d="M65.887,13.371H64.99v-2.299c0-0.723-0.273-1.088-0.813-1.088c-0.465,0-0.896,0.315-0.896,0.955v2.432
			h-0.896V7.486h0.896V9.91h0.017c0.282-0.44,0.688-0.656,1.212-0.656c0.854,0,1.379,0.664,1.379,1.719v2.398H65.887z"/>
		<path fill="#FFFFFF" d="M69.214,13.371l-0.065-0.465h-0.024c-0.274,0.373-0.673,0.557-1.179,0.557
			c-0.723,0-1.236-0.507-1.236-1.188c0-0.996,0.863-1.511,2.357-1.511v-0.075c0-0.531-0.283-0.797-0.84-0.797
			c-0.397,0-0.746,0.1-1.054,0.299L66.99,9.602c0.373-0.232,0.839-0.349,1.387-0.349c1.055,0,1.586,0.557,1.586,1.668v1.486
			c0,0.406,0.016,0.723,0.059,0.963L69.214,13.371L69.214,13.371z M69.09,11.362c-0.996,0-1.494,0.241-1.494,0.813
			c0,0.424,0.258,0.631,0.614,0.631c0.457,0,0.88-0.349,0.88-0.822V11.362z"/>
		<path fill="#FFFFFF" d="M73.199,10.125c-0.092-0.016-0.182-0.024-0.281-0.024c-0.582,0-0.955,0.456-0.955,1.153v2.117h-0.896
			v-2.764c0-0.465,0-0.889-0.024-1.271h0.781v0.772h0.058c0.176-0.516,0.605-0.855,1.096-0.855c0.084,0,0.157,0.008,0.225,0.017
			v0.855H73.199z"/>
		<path fill="#FFFFFF" d="M77.416,9.336c-0.025,0.323-0.033,0.706-0.033,1.146v2.308c0,1.693-0.746,2.308-2.074,2.308
			c-0.557,0-1.014-0.107-1.354-0.315l0.207-0.688c0.34,0.207,0.723,0.307,1.146,0.307c0.787,0,1.187-0.424,1.187-1.278v-0.39h-0.017
			c-0.25,0.406-0.647,0.613-1.188,0.613c-0.971,0-1.677-0.838-1.677-1.967c0-1.236,0.772-2.125,1.784-2.125
			c0.549,0,0.938,0.216,1.18,0.639h0.016V9.336H77.416z M76.486,10.93c0-0.54-0.365-0.987-0.922-0.987
			c-0.605,0-1.045,0.547-1.045,1.402c0,0.789,0.422,1.328,1.045,1.328c0.506,0,0.922-0.415,0.922-1.029V10.93z"/>
		<path fill="#FFFFFF" d="M81.797,11.57h-2.689c0.018,0.764,0.522,1.195,1.271,1.195c0.398,0,0.764-0.066,1.087-0.191l0.142,0.623
			c-0.383,0.166-0.83,0.248-1.354,0.248c-1.262,0-2.009-0.797-2.009-2.033c0-1.236,0.764-2.166,1.909-2.166
			c1.029,0,1.677,0.764,1.677,1.917C81.831,11.32,81.822,11.461,81.797,11.57z M80.977,10.93c0-0.622-0.316-1.062-0.89-1.062
			c-0.515,0-0.922,0.448-0.979,1.062H80.977z"/>
		<path fill="#FFFFFF" d="M84.802,10.125c-0.092-0.016-0.184-0.024-0.282-0.024c-0.58,0-0.955,0.456-0.955,1.153v2.117h-0.896
			v-2.764c0-0.465,0-0.889-0.024-1.271h0.779v0.772h0.059c0.175-0.516,0.605-0.855,1.097-0.855c0.083,0,0.157,0.008,0.226,0.017
			v0.855H84.802z"/>
		<path fill="#FFFFFF" d="M88.346,13.454c-0.457,0-0.847-0.091-1.171-0.274l0.191-0.664c0.307,0.191,0.639,0.283,0.987,0.283
			c0.455,0,0.688-0.166,0.688-0.507c0-0.299-0.174-0.465-0.68-0.655c-0.723-0.266-1.08-0.656-1.08-1.162
			c0-0.697,0.582-1.221,1.453-1.221c0.397,0,0.738,0.083,1.021,0.24l-0.19,0.64c-0.258-0.157-0.531-0.232-0.822-0.232
			c-0.373,0-0.598,0.199-0.598,0.474c0,0.257,0.142,0.398,0.715,0.613c0.697,0.258,1.045,0.673,1.045,1.221
			C89.906,12.964,89.316,13.454,88.346,13.454z"/>
		<path fill="#FFFFFF" d="M93.477,13.371l-0.052-0.614H93.41c-0.283,0.474-0.706,0.706-1.279,0.706c-0.888,0-1.377-0.64-1.377-1.752
			V9.336h0.896v2.225c0,0.772,0.266,1.162,0.797,1.162c0.455,0,0.888-0.308,0.888-0.921V9.336h0.896v2.872
			c0,0.382,0.01,0.771,0.033,1.162L93.477,13.371L93.477,13.371z"/>
		<path fill="#FFFFFF" d="M97.492,10.125C97.4,10.109,97.311,10.1,97.21,10.1c-0.582,0-0.955,0.456-0.955,1.153v2.117h-0.896v-2.764
			c0-0.465,0-0.889-0.025-1.271h0.781v0.772h0.058c0.175-0.516,0.606-0.855,1.097-0.855c0.082,0,0.156,0.008,0.224,0.017
			L97.492,10.125L97.492,10.125z"/>
	</g>
</g>
</svg>
