<?xml version="1.0" encoding="utf-8"?>
<!-- Generator: Adobe Illustrator 15.1.0, SVG Export Plug-In . SVG Version: 6.00 Build 0)  -->
<!DOCTYPE svg PUBLIC "-//W3C//DTD SVG 1.1//EN" "http://www.w3.org/Graphics/SVG/1.1/DTD/svg11.dtd">
<svg version="1.1" id="Layer_1" xmlns="http://www.w3.org/2000/svg" xmlns:xlink="http://www.w3.org/1999/xlink" x="0px" y="0px"
	 width="110px" height="40px" viewBox="0 0 110 40" enable-background="new 0 0 110 40" xml:space="preserve">
<g>
	<path fill="#A6A6A6" d="M105.27,40H4.729C2.122,40,0,37.882,0,35.277V4.726C0,2.12,2.122,0,4.729,0H105.27
		c2.604,0,4.729,2.12,4.729,4.726v30.551C109.998,37.882,107.875,40,105.27,40L105.27,40z"/>
	<path d="M109.104,35.277c0,2.117-1.713,3.83-3.834,3.83H4.729c-2.119,0-3.839-1.713-3.839-3.83V4.726
		c0-2.116,1.72-3.836,3.839-3.836H105.27c2.121,0,3.834,1.72,3.834,3.836V35.277z"/>
	<path fill="#FFFFFF" d="M30.205,19.728c-0.03-3.223,2.65-4.791,2.773-4.864c-1.518-2.204-3.871-2.505-4.696-2.529
		c-1.977-0.207-3.892,1.178-4.899,1.178c-1.026,0-2.576-1.157-4.246-1.124c-2.148,0.034-4.16,1.272-5.263,3.196
		c-2.276,3.923-0.578,9.69,1.602,12.858c1.09,1.556,2.365,3.287,4.033,3.227c1.632-0.064,2.241-1.036,4.211-1.036
		c1.951,0,2.524,1.036,4.225,0.997c1.752-0.025,2.855-1.559,3.907-3.126c1.261-1.78,1.767-3.532,1.787-3.623
		C33.599,24.867,30.238,23.592,30.205,19.728z"/>
	<path fill="#FFFFFF" d="M26.99,10.25c0.877-1.093,1.479-2.58,1.312-4.089c-1.271,0.056-2.859,0.875-3.774,1.945
		c-0.809,0.942-1.533,2.486-1.346,3.938C24.608,12.149,26.074,11.327,26.99,10.25z"/>
	
		<linearGradient id="SVGID_1_" gradientUnits="userSpaceOnUse" x1="82.5127" y1="0.8901" x2="82.5127" y2="36.9467" gradientTransform="matrix(1 0 0 -1 0 41)">
		<stop  offset="0" style="stop-color:#1A1A1A;stop-opacity:0.1"/>
		<stop  offset="0.1235" style="stop-color:#212121;stop-opacity:0.1506"/>
		<stop  offset="0.3085" style="stop-color:#353535;stop-opacity:0.2265"/>
		<stop  offset="0.5321" style="stop-color:#575757;stop-opacity:0.3181"/>
		<stop  offset="0.7834" style="stop-color:#858585;stop-opacity:0.4212"/>
		<stop  offset="1" style="stop-color:#B3B3B3;stop-opacity:0.51"/>
	</linearGradient>
	<path fill="url(#SVGID_1_)" d="M105.27,0H55.026L81.35,40h23.92c2.604,0,4.729-2.117,4.729-4.723V4.726
		C110,2.121,107.875,0,105.27,0z"/>
	<g>
		<path fill="#FFFFFF" d="M47.036,19.039c0,0.382-0.125,0.691-0.375,0.929c-0.25,0.236-0.572,0.354-0.968,0.354
			c-0.355,0-0.654-0.121-0.898-0.365c-0.243-0.243-0.365-0.549-0.365-0.918c0-0.368,0.125-0.671,0.375-0.908
			c0.25-0.236,0.56-0.355,0.929-0.355c0.368,0,0.678,0.119,0.928,0.355C46.911,18.368,47.036,18.67,47.036,19.039z M46.799,31.498
			h-2.132v-9.596h2.132V31.498z"/>
		<path fill="#FFFFFF" d="M58.311,19.987h-3.832v11.511h-2.133V19.987h-3.791V18.19h9.753v1.797H58.311z"/>
		<path fill="#FFFFFF" d="M67.156,31.498h-1.875l-0.119-1.461h-0.039c-0.672,1.119-1.686,1.678-3.041,1.678
			c-0.947,0-1.705-0.296-2.271-0.888c-0.67-0.726-1.006-1.816-1.006-3.278v-5.646h2.133v5.291c0,1.845,0.631,2.766,1.896,2.766
			c0.946,0,1.604-0.461,1.976-1.382c0.092-0.237,0.139-0.507,0.139-0.81v-5.865h2.133v6.832
			C67.078,29.641,67.104,30.562,67.156,31.498z"/>
		<path fill="#FFFFFF" d="M78.41,31.498h-2.133v-5.509c0-1.698-0.646-2.548-1.937-2.548c-0.631,0-1.146,0.233-1.539,0.701
			c-0.395,0.467-0.592,1.018-0.592,1.648v5.706h-2.133v-6.853c0-0.842-0.027-1.756-0.08-2.744h1.877l0.099,1.48h0.061
			c0.25-0.46,0.617-0.842,1.105-1.145c0.577-0.355,1.223-0.533,1.934-0.533c0.896,0,1.639,0.289,2.232,0.867
			c0.735,0.712,1.104,1.771,1.104,3.18L78.41,31.498L78.41,31.498z"/>
		<path fill="#FFFFFF" d="M89.27,26.246c0,0.382-0.027,0.704-0.08,0.968h-6.396c0.025,0.947,0.336,1.672,0.928,2.172
			c0.539,0.447,1.238,0.671,2.094,0.671c0.947,0,1.81-0.15,2.586-0.453l0.336,1.479c-0.907,0.396-1.981,0.593-3.219,0.593
			c-1.488,0-2.656-0.438-3.504-1.312c-0.85-0.875-1.272-2.051-1.272-3.523c0-1.447,0.396-2.652,1.184-3.613
			c0.83-1.026,1.949-1.539,3.357-1.539c1.381,0,2.428,0.513,3.139,1.539C88.986,24.041,89.27,25.048,89.27,26.246z M87.236,25.693
			c0.012-0.633-0.127-1.178-0.416-1.639c-0.367-0.594-0.934-0.89-1.697-0.89c-0.697,0-1.264,0.29-1.697,0.869
			c-0.355,0.46-0.566,1.014-0.633,1.657h4.443V25.693z"/>
		<path fill="#FFFFFF" d="M97.542,28.732c0,0.896-0.33,1.613-0.987,2.152c-0.658,0.54-1.566,0.811-2.726,0.811
			c-1.093,0-2.021-0.217-2.783-0.651l0.453-1.579c0.737,0.447,1.521,0.671,2.351,0.671c1.092,0,1.639-0.401,1.639-1.204
			c0-0.354-0.117-0.647-0.355-0.879c-0.236-0.229-0.658-0.457-1.264-0.682c-1.711-0.632-2.566-1.553-2.566-2.764
			c0-0.83,0.316-1.521,0.947-2.073c0.633-0.554,1.469-0.829,2.508-0.829c0.947,0,1.758,0.189,2.43,0.572l-0.455,1.521
			c-0.619-0.368-1.27-0.553-1.955-0.553c-0.446,0-0.797,0.104-1.045,0.315c-0.252,0.211-0.377,0.479-0.377,0.81
			s0.133,0.6,0.396,0.81c0.223,0.197,0.658,0.415,1.303,0.651C96.712,26.462,97.542,27.43,97.542,28.732z"/>
	</g>
	<g>
		<path fill="#FFFFFF" d="M45.981,13.463c-0.679,0-1.218-0.13-1.626-0.39l0.232-0.837c0.437,0.261,0.92,0.391,1.449,0.391
			c0.753,0,1.198-0.372,1.198-0.938c0-0.512-0.315-0.827-1.124-1.125c-1.097-0.408-1.645-1.003-1.645-1.793
			c0-1.031,0.854-1.757,2.118-1.757c0.567,0,1.041,0.103,1.422,0.298l-0.251,0.817c-0.353-0.195-0.752-0.288-1.198-0.288
			c-0.66,0-1.078,0.335-1.078,0.827c0,0.483,0.27,0.725,1.199,1.097c1.077,0.437,1.57,0.985,1.57,1.85
			C48.249,12.729,47.375,13.463,45.981,13.463z"/>
		<path fill="#FFFFFF" d="M52.47,9.737c-0.251-0.12-0.548-0.186-0.873-0.186c-0.883,0-1.432,0.66-1.432,1.562
			c0,0.957,0.604,1.552,1.432,1.552c0.307,0,0.613-0.065,0.91-0.187l0.14,0.753c-0.325,0.158-0.743,0.232-1.245,0.232
			c-1.385,0-2.258-0.91-2.258-2.305c0-1.394,0.957-2.397,2.435-2.397c0.418,0,0.78,0.074,1.087,0.214L52.47,9.737z"/>
		<path fill="#FFFFFF" d="M56.191,13.371l-0.073-0.521H56.09c-0.307,0.418-0.753,0.623-1.319,0.623
			c-0.809,0-1.385-0.567-1.385-1.329c0-1.115,0.967-1.691,2.639-1.691v-0.084c0-0.595-0.315-0.892-0.938-0.892
			c-0.445,0-0.836,0.111-1.18,0.335l-0.204-0.66c0.418-0.261,0.938-0.391,1.552-0.391c1.181,0,1.774,0.623,1.774,1.868v1.663
			c0,0.455,0.019,0.809,0.064,1.078L56.191,13.371L56.191,13.371z M56.052,11.122c-1.115,0-1.673,0.27-1.673,0.911
			c0,0.474,0.288,0.706,0.688,0.706c0.512,0,0.985-0.391,0.985-0.92V11.122z"/>
		<path fill="#FFFFFF" d="M60.841,9.737c-0.103-0.019-0.204-0.027-0.315-0.027c-0.65,0-1.068,0.511-1.068,1.292v2.369h-1.004v-3.095
			c0-0.521,0-0.994-0.027-1.422h0.873v0.864h0.064c0.195-0.576,0.679-0.957,1.228-0.957c0.093,0,0.177,0.01,0.251,0.02L60.841,9.737
			L60.841,9.737z"/>
		<path fill="#FFFFFF" d="M62.275,8.111c-0.336,0-0.596-0.26-0.596-0.604c0-0.344,0.271-0.595,0.613-0.595
			c0.344,0,0.622,0.251,0.613,0.595C62.907,7.87,62.646,8.111,62.275,8.111z M62.795,13.371h-1.004V8.854h1.004V13.371z"/>
		<path fill="#FFFFFF" d="M67.275,9.737c-0.25-0.12-0.547-0.186-0.873-0.186c-0.883,0-1.432,0.66-1.432,1.562
			c0,0.957,0.604,1.552,1.432,1.552c0.308,0,0.613-0.065,0.91-0.187l0.141,0.753c-0.325,0.158-0.743,0.232-1.245,0.232
			c-1.385,0-2.258-0.91-2.258-2.305c0-1.394,0.957-2.397,2.435-2.397c0.418,0,0.78,0.074,1.088,0.214L67.275,9.737z"/>
		<path fill="#FFFFFF" d="M70.997,13.371l-0.074-0.521h-0.028c-0.307,0.418-0.752,0.623-1.318,0.623
			c-0.809,0-1.385-0.567-1.385-1.329c0-1.115,0.967-1.691,2.639-1.691v-0.084c0-0.595-0.314-0.892-0.938-0.892
			c-0.445,0-0.836,0.111-1.181,0.335l-0.204-0.66c0.418-0.261,0.938-0.391,1.553-0.391c1.18,0,1.773,0.623,1.773,1.868v1.663
			c0,0.455,0.02,0.809,0.064,1.078L70.997,13.371L70.997,13.371z M70.857,11.122c-1.115,0-1.674,0.27-1.674,0.911
			c0,0.474,0.289,0.706,0.688,0.706c0.512,0,0.985-0.391,0.985-0.92V11.122z"/>
		<path fill="#FFFFFF" d="M76.652,13.463c-0.512,0-0.947-0.103-1.311-0.307l0.213-0.743c0.346,0.214,0.717,0.315,1.106,0.315
			c0.511,0,0.771-0.186,0.771-0.566c0-0.335-0.195-0.521-0.763-0.734c-0.81-0.297-1.208-0.733-1.208-1.301
			c0-0.78,0.65-1.366,1.627-1.366c0.445,0,0.826,0.093,1.143,0.271l-0.213,0.716c-0.289-0.177-0.596-0.261-0.92-0.261
			c-0.418,0-0.67,0.224-0.67,0.53c0,0.288,0.158,0.446,0.799,0.688c0.781,0.288,1.172,0.753,1.172,1.366
			C78.398,12.916,77.74,13.463,76.652,13.463z"/>
		<path fill="#FFFFFF" d="M82.583,13.371l-0.056-0.688h-0.02c-0.316,0.529-0.79,0.79-1.432,0.79c-0.994,0-1.542-0.716-1.542-1.961
			V8.854h1.003v2.491c0,0.864,0.298,1.301,0.893,1.301c0.512,0,0.994-0.344,0.994-1.031V8.854h1.004v3.216
			c0,0.428,0.01,0.864,0.037,1.301H82.583z"/>
	</g>
</g>
</svg>
