<?xml version="1.0" encoding="utf-8"?>
<!-- Generator: Adobe Illustrator 16.2.1, SVG Export Plug-In . SVG Version: 6.00 Build 0)  -->
<!DOCTYPE svg PUBLIC "-//W3C//DTD SVG 1.1//EN" "http://www.w3.org/Graphics/SVG/1.1/DTD/svg11.dtd">
<svg version="1.1" id="Livetype" xmlns="http://www.w3.org/2000/svg" xmlns:xlink="http://www.w3.org/1999/xlink" x="0px" y="0px"
	 width="110px" height="40px" viewBox="0 0 110 40" enable-background="new 0 0 110 40" xml:space="preserve">
<g>
	<path fill="#A6A6A6" d="M103.371,0H6.625C6.372,0,6.119,0,5.866,0.001C5.652,0.002,5.444,0.005,5.23,0.01
		c-0.466,0.016-0.934,0.04-1.394,0.125c-0.467,0.082-0.9,0.22-1.32,0.436C2.099,0.783,1.721,1.057,1.386,1.386
		c-0.33,0.335-0.603,0.712-0.814,1.131C0.355,2.936,0.218,3.37,0.136,3.837c-0.087,0.46-0.11,0.929-0.127,1.394
		C0.005,5.444,0.003,5.652,0.001,5.866c-0.001,0.253,0,0.506,0,0.76v26.753c0,0.248-0.001,0.506,0,0.756
		c0.002,0.211,0.004,0.426,0.008,0.639c0.017,0.471,0.04,0.934,0.127,1.389c0.082,0.473,0.22,0.906,0.436,1.33
		c0.212,0.408,0.484,0.799,0.814,1.121c0.335,0.334,0.713,0.613,1.131,0.824c0.42,0.217,0.854,0.344,1.32,0.438
		c0.46,0.08,0.928,0.105,1.394,0.115c0.214,0.004,0.422,0.006,0.636,0.008C6.119,40,6.372,40,6.625,40h96.746
		c0.252,0,0.506,0,0.76-0.002c0.211-0.002,0.426-0.004,0.641-0.008c0.463-0.01,0.932-0.035,1.393-0.115
		c0.461-0.094,0.895-0.221,1.32-0.438c0.42-0.211,0.797-0.49,1.127-0.824c0.328-0.322,0.607-0.713,0.818-1.121
		c0.217-0.424,0.354-0.857,0.436-1.33c0.082-0.455,0.111-0.918,0.123-1.389c0.008-0.213,0.01-0.428,0.01-0.639
		C110,33.885,110,33.627,110,33.379V6.625c0-0.254,0-0.506-0.002-0.76c0-0.213-0.002-0.421-0.01-0.635
		c-0.012-0.465-0.041-0.934-0.123-1.394c-0.082-0.467-0.219-0.901-0.436-1.32c-0.211-0.419-0.49-0.796-0.818-1.131
		c-0.33-0.329-0.707-0.603-1.127-0.815c-0.426-0.215-0.859-0.354-1.32-0.436c-0.461-0.086-0.93-0.11-1.393-0.125
		c-0.215-0.005-0.43-0.007-0.641-0.008C103.877,0,103.623,0,103.371,0L103.371,0z"/>
	<path d="M103.371,0.985l0.752,0.001c0.207,0.001,0.416,0.003,0.619,0.013c0.379,0.009,0.818,0.027,1.246,0.108
		c0.395,0.071,0.727,0.18,1.051,0.342c0.32,0.166,0.615,0.38,0.875,0.638c0.258,0.258,0.473,0.552,0.639,0.876
		c0.162,0.322,0.271,0.654,0.342,1.05c0.076,0.423,0.096,0.865,0.105,1.24c0.006,0.207,0.008,0.415,0.008,0.625
		c0.002,0.25,0.002,0.496,0.002,0.748v26.753c0,0.246,0,0.502-0.002,0.75c0,0.207-0.002,0.416-0.008,0.621
		c-0.01,0.377-0.029,0.818-0.105,1.244c-0.07,0.387-0.18,0.725-0.342,1.053c-0.166,0.318-0.381,0.613-0.639,0.875
		c-0.26,0.254-0.555,0.467-0.877,0.627c-0.322,0.174-0.654,0.277-1.047,0.35c-0.434,0.074-0.893,0.104-1.244,0.111
		c-0.205,0.004-0.412,0.006-0.623,0.008c-0.25,0.002-0.502,0.002-0.752,0.002H6.625c-0.003,0-0.005,0-0.007,0
		c-0.249,0-0.498,0-0.748-0.002c-0.203-0.002-0.412-0.004-0.617-0.008c-0.349-0.008-0.811-0.037-1.24-0.111
		c-0.396-0.072-0.728-0.176-1.051-0.35c-0.324-0.16-0.617-0.373-0.875-0.627c-0.257-0.262-0.471-0.557-0.639-0.875
		c-0.16-0.328-0.27-0.666-0.341-1.055c-0.081-0.426-0.099-0.865-0.108-1.242c-0.01-0.207-0.012-0.416-0.013-0.621l-0.001-0.6v-0.15
		V6.625v-0.15l0.001-0.598c0.001-0.208,0.003-0.416,0.013-0.624c0.01-0.374,0.027-0.814,0.109-1.241
		c0.07-0.394,0.18-0.727,0.341-1.05C1.616,2.639,1.83,2.345,2.087,2.087c0.258-0.257,0.551-0.472,0.875-0.639
		c0.322-0.161,0.655-0.27,1.05-0.341C4.438,1.026,4.879,1.008,5.253,1c0.208-0.01,0.416-0.012,0.623-0.013l0.749-0.001H103.371"/>
	<g>
		<g>
			<path fill="#FFFFFF" d="M30.128,19.783c-0.029-3.223,2.639-4.791,2.762-4.863c-1.512-2.203-3.854-2.505-4.676-2.528
				c-1.968-0.206-3.875,1.177-4.877,1.177c-1.022,0-2.566-1.156-4.229-1.122c-2.139,0.033-4.142,1.272-5.24,3.196
				c-2.266,3.922-0.575,9.688,1.596,12.857c1.086,1.553,2.354,3.287,4.016,3.227c1.625-0.068,2.231-1.037,4.193-1.037
				c1.943,0,2.512,1.037,4.207,0.998c1.743-0.029,2.842-1.561,3.89-3.127c1.255-1.781,1.759-3.533,1.778-3.623
				C33.508,24.924,30.161,23.646,30.128,19.783z"/>
			<path fill="#FFFFFF" d="M26.929,10.307c0.873-1.094,1.471-2.581,1.305-4.09c-1.265,0.056-2.847,0.875-3.758,1.944
				c-0.805,0.942-1.525,2.486-1.34,3.938C24.558,12.205,26.017,11.383,26.929,10.307z"/>
		</g>
	</g>
	<g>
		<path fill="#FFFFFF" d="M48.129,7.92h-2.46v1.883h2.283v0.829h-2.283v2.74h-1.007V7.09h3.467V7.92z"/>
		<path fill="#FFFFFF" d="M52.062,13.372l-0.074-0.53h-0.028c-0.311,0.416-0.752,0.623-1.323,0.623
			c-0.205,0-0.392-0.033-0.559-0.098c-0.168-0.065-0.314-0.157-0.438-0.275c-0.125-0.118-0.221-0.258-0.289-0.419
			c-0.068-0.161-0.103-0.338-0.103-0.531c0-0.565,0.229-0.989,0.685-1.272s1.11-0.424,1.962-0.424v-0.084
			c0-0.597-0.313-0.895-0.939-0.895c-0.446,0-0.84,0.112-1.181,0.336l-0.205-0.662c0.416-0.261,0.934-0.391,1.554-0.391
			c1.185,0,1.777,0.625,1.777,1.873v1.668c0,0.236,0.005,0.444,0.014,0.625s0.026,0.333,0.051,0.457H52.062z M51.922,11.117
			c-0.562,0-0.981,0.071-1.256,0.213c-0.275,0.143-0.413,0.374-0.413,0.695c0,0.234,0.065,0.411,0.195,0.528
			c0.129,0.118,0.293,0.176,0.491,0.176c0.129,0,0.253-0.023,0.371-0.069s0.221-0.11,0.311-0.19
			c0.089-0.081,0.162-0.178,0.218-0.292s0.083-0.236,0.083-0.366V11.117z M52.108,7.51c0,0.125-0.023,0.239-0.07,0.345
			c-0.047,0.106-0.111,0.199-0.191,0.28s-0.175,0.145-0.284,0.191c-0.109,0.047-0.225,0.07-0.35,0.07
			c-0.124,0-0.239-0.023-0.345-0.07c-0.105-0.046-0.199-0.11-0.28-0.191c-0.081-0.081-0.144-0.174-0.191-0.28
			c-0.046-0.105-0.07-0.22-0.07-0.345c0-0.124,0.023-0.241,0.07-0.35c0.047-0.108,0.11-0.203,0.191-0.284
			c0.081-0.081,0.174-0.145,0.28-0.191c0.105-0.047,0.221-0.07,0.345-0.07c0.249,0,0.46,0.087,0.634,0.261
			C52.021,7.05,52.108,7.261,52.108,7.51z M51.614,7.51c0-0.112-0.039-0.207-0.117-0.284s-0.172-0.117-0.284-0.117
			c-0.105,0-0.197,0.039-0.275,0.117s-0.116,0.172-0.116,0.284c0,0.106,0.039,0.197,0.116,0.275s0.169,0.117,0.275,0.117
			c0.112,0,0.207-0.039,0.284-0.117S51.614,7.616,51.614,7.51z"/>
		<path fill="#FFFFFF" d="M57.281,12.07c0,0.422-0.155,0.76-0.466,1.014c-0.311,0.254-0.74,0.381-1.287,0.381
			c-0.516,0-0.954-0.103-1.314-0.308l0.214-0.746c0.348,0.211,0.718,0.317,1.109,0.317c0.516,0,0.773-0.189,0.773-0.568
			c0-0.168-0.056-0.306-0.168-0.415c-0.112-0.108-0.311-0.216-0.596-0.321c-0.808-0.298-1.212-0.733-1.212-1.305
			c0-0.392,0.149-0.718,0.447-0.979c0.298-0.261,0.693-0.391,1.184-0.391c0.447,0,0.829,0.091,1.146,0.273l-0.214,0.724
			c-0.292-0.174-0.6-0.261-0.922-0.261c-0.211,0-0.376,0.049-0.494,0.148s-0.177,0.227-0.177,0.381s0.062,0.282,0.187,0.381
			c0.105,0.093,0.311,0.195,0.615,0.307C56.89,11.001,57.281,11.457,57.281,12.07z"/>
		<path fill="#FFFFFF" d="M62.322,7.491c0,0.18-0.059,0.326-0.176,0.438c-0.119,0.112-0.271,0.168-0.457,0.168
			c-0.168,0-0.31-0.058-0.424-0.173c-0.115-0.115-0.173-0.259-0.173-0.433s0.06-0.317,0.177-0.429
			c0.118-0.112,0.264-0.168,0.438-0.168c0.174,0,0.319,0.056,0.438,0.168C62.264,7.174,62.322,7.317,62.322,7.491z M62.211,13.372
			h-1.006V8.843h1.006V13.372z"/>
	</g>
	<g>
		<path fill="#FFFFFF" d="M47.046,19.04c0,0.382-0.125,0.691-0.375,0.928c-0.25,0.237-0.573,0.355-0.968,0.355
			c-0.355,0-0.655-0.122-0.899-0.365s-0.365-0.549-0.365-0.918c0-0.368,0.125-0.671,0.375-0.908c0.25-0.237,0.559-0.355,0.928-0.355
			c0.368,0,0.678,0.118,0.928,0.355C46.921,18.368,47.046,18.671,47.046,19.04z M46.81,31.502h-2.133v-9.599h2.133V31.502z"/>
		<path fill="#FFFFFF" d="M58.284,19.988h-3.812v11.514h-2.133V19.988h-3.792V18.19h9.737V19.988z"/>
		<path fill="#FFFFFF" d="M67.172,31.502h-1.877l-0.117-1.461h-0.041c-0.671,1.119-1.686,1.678-3.041,1.678
			c-0.947,0-1.705-0.296-2.271-0.889c-0.671-0.724-1.007-1.816-1.007-3.278v-5.648h2.134v5.293c0,1.844,0.631,2.765,1.896,2.765
			c0.948,0,1.606-0.461,1.976-1.382c0.092-0.237,0.137-0.507,0.137-0.81v-5.866h2.133v6.833
			C67.092,29.646,67.119,30.567,67.172,31.502z"/>
		<path fill="#FFFFFF" d="M78.391,31.502h-2.133v-5.496c0-1.695-0.646-2.542-1.936-2.542c-0.633,0-1.146,0.233-1.541,0.699
			s-0.594,1.015-0.594,1.646v5.693h-2.133v-6.854c0-0.842-0.025-1.758-0.078-2.745h1.877l0.098,1.501h0.059
			c0.25-0.467,0.619-0.854,1.107-1.158c0.578-0.36,1.225-0.54,1.936-0.54c0.895,0,1.639,0.29,2.23,0.869
			c0.738,0.711,1.107,1.771,1.107,3.18V31.502z"/>
		<path fill="#FFFFFF" d="M89.271,26.248c0,0.383-0.025,0.705-0.078,0.969h-6.4c0.027,0.947,0.336,1.672,0.93,2.172
			c0.539,0.447,1.236,0.672,2.094,0.672c0.947,0,1.809-0.151,2.586-0.455l0.336,1.482c-0.908,0.395-1.982,0.592-3.219,0.592
			c-1.488,0-2.656-0.438-3.506-1.313s-1.273-2.05-1.273-3.525c0-1.448,0.395-2.653,1.186-3.614c0.828-1.027,1.947-1.541,3.357-1.541
			c1.381,0,2.428,0.513,3.139,1.541C88.988,24.043,89.271,25.051,89.271,26.248z M87.238,25.695
			c0.012-0.632-0.127-1.178-0.416-1.639c-0.369-0.593-0.934-0.889-1.697-0.889c-0.699,0-1.266,0.289-1.699,0.869
			c-0.355,0.461-0.566,1.014-0.633,1.658H87.238z"/>
		<path fill="#FFFFFF" d="M97.508,28.744c0,0.893-0.328,1.609-0.986,2.147c-0.66,0.538-1.568,0.808-2.727,0.808
			c-1.094,0-2.021-0.217-2.785-0.651l0.455-1.58c0.736,0.448,1.52,0.671,2.35,0.671c1.094,0,1.639-0.4,1.639-1.204
			c0-0.355-0.117-0.648-0.355-0.879c-0.236-0.23-0.658-0.458-1.264-0.682c-1.711-0.632-2.566-1.554-2.566-2.765
			c0-0.83,0.316-1.521,0.947-2.074c0.633-0.553,1.469-0.829,2.508-0.829c0.949,0,1.758,0.193,2.43,0.58l-0.453,1.533
			c-0.619-0.368-1.271-0.554-1.957-0.554c-0.447,0-0.797,0.105-1.045,0.316c-0.252,0.209-0.377,0.479-0.377,0.807
			c0,0.329,0.133,0.599,0.396,0.809c0.223,0.197,0.658,0.414,1.303,0.65C96.678,26.479,97.508,27.443,97.508,28.744z"/>
	</g>
</g>
</svg>
