<?xml version="1.0" encoding="utf-8"?>
<svg xmlns="http://www.w3.org/2000/svg"
	xmlns:xlink="http://www.w3.org/1999/xlink"
	width="11px" height="19px" viewBox="0 0 11 21">
<path fillRule="evenodd" d="M 3.13 20.37C 3.13 20.37 3.13 11.49 3.13 11.49 3.13 11.49 0.22 11.49 0.22 11.49 0.22 11.49 0.22 7.54 0.22 7.54 0.22 7.54 3.13 7.54 3.13 7.54 3.13 7.54 3.13 5.7 3.13 4.14 3.13 1.79 4.95-0.37 8.15-0.37 9.57-0.37 10.78-0.23 10.78-0.23 10.78-0.23 10.77 3.04 10.77 3.04 10.77 3.04 9.52 3.03 8.35 3.03 7.09 3.03 6.89 3.61 6.89 4.57 6.89 5.34 6.89 3.65 6.89 7.54 6.89 7.54 10.59 7.54 10.59 7.54 10.59 7.54 10.59 11.49 10.59 11.49 10.59 11.49 6.89 11.49 6.89 11.49 6.89 11.49 6.89 20.37 6.89 20.37 6.89 20.37 3.13 20.37 3.13 20.37Z" fill="rgb(59,89,151)"/></svg>
