<?xml version="1.0" encoding="utf-8"?>
<svg xmlns="http://www.w3.org/2000/svg"
	xmlns:xlink="http://www.w3.org/1999/xlink"
	width="20px" height="17px" viewBox="0 0 22 17">
<path fillRule="evenodd" d="M 19.18-0.01C 19.18-0.01 2.54-0.01 2.54-0.01 1.11-0.01-0.05 1.36-0.05 2.73-0.05 2.73-0.05 14.33-0.05 14.33-0.05 15.7 1.11 16.82 2.54 16.82 2.54 16.82 19.18 16.82 19.18 16.82 20.6 16.82 21.76 15.7 21.76 14.33 21.76 14.33 21.76 2.73 21.76 2.73 21.76 1.36 20.6-0.01 19.18-0.01ZM 19.39 14.84C 19.39 14.84 2.38 14.84 2.38 14.84 2.17 14.84 1.93 14.49 1.93 14.33 1.93 14.33 1.93 4.27 1.93 4.27 1.93 4.27 9.67 10.62 9.67 10.62 9.82 10.75 10.02 10.82 10.22 10.82 10.22 10.82 11.49 10.82 11.49 10.82 11.7 10.82 11.89 10.75 12.05 10.62 12.05 10.62 19.79 4.27 19.79 4.27 19.79 4.27 19.79 14.55 19.79 14.55 19.79 14.71 19.6 14.84 19.39 14.84ZM 10.86 8.64C 10.86 8.64 2.96 2 2.96 2 2.96 2 18.95 2 18.95 2 18.95 2 10.86 8.64 10.86 8.64Z" fill="rgb(43,85,113)"/></svg>
