<?xml version="1.0" encoding="utf-8"?>
<svg xmlns="http://www.w3.org/2000/svg"
	xmlns:xlink="http://www.w3.org/1999/xlink"
	width="22px" height="18px" viewBox="0 0 22 18">
<path fillRule="evenodd" d="M 21.33 2.28C 20.54 2.64 19.68 2.88 18.78 2.98 19.7 2.43 20.4 1.56 20.74 0.52 19.88 1.03 18.93 1.4 17.91 1.6 17.1 0.74 15.95 0.2 14.67 0.2 12.22 0.2 10.23 2.19 10.23 4.64 10.23 4.99 10.27 5.33 10.34 5.66 6.65 5.47 3.38 3.7 1.18 1.01 0.8 1.67 0.58 2.43 0.58 3.25 0.58 4.79 1.03 6.15 2.22 6.95 1.49 6.92 1.31 6.72-0.13 6.39-0.13 6.41-0.13 6.43-0.13 6.45-0.13 8.6 1.74 10.39 3.77 10.8 3.4 10.9 3.18 10.96 2.77 10.96 2.48 10.96 2.29 10.93 2.02 10.88 2.58 12.64 4.27 13.93 6.21 13.96 4.69 15.16 2.8 15.87 0.72 15.87 0.36 15.87 0.01 15.84-0.33 15.8 1.63 17.06 3.97 17.8 6.48 17.8 14.66 17.8 19.13 11.03 19.13 5.16 19.13 4.97 19.12 4.77 19.12 4.58 19.98 3.96 20.74 3.17 21.33 2.28Z" fill="rgb(83,169,237)"/></svg>