<?xml version="1.0" encoding="utf-8"?>
<svg version="1.1" id="Layer_1" xmlns="http://www.w3.org/2000/svg" xmlns:xlink="http://www.w3.org/1999/xlink" x="0px" y="0px"
	 viewBox="0 0 40 40" style="enable-background:new 0 0 40 40;" xml:space="preserve" width="40px" height="40px">
<style type="text/css">
	.st0{fill:#FFFFFF;}
</style>
<path class="st0" d="M31.3,21.3c0,0.8,0,1.7,0,2.5c-0.8,0-1.7,0-2.5,0c0-0.8,0-1.7,0-2.5c-0.8,0-1.7,0-2.5,0c0-0.8,0-1.7,0-2.5
	c0.8,0,1.7,0,2.5,0c0-0.8,0-1.7,0-2.5c0.8,0,1.7,0,2.5,0c0,0.8,0,1.7,0,2.5c0.8,0,1.7,0,2.5,0c0,0.8,0,1.7,0,2.5
	C33,21.3,32.1,21.3,31.3,21.3z M12.1,28.3c-3.5-1.1-6-4.6-5.9-8.3c-0.2-4.5,3.8-8.7,8.3-8.8c2.3-0.2,4.6,0.7,6.3,2.2
	c-0.7,0.8-1.5,1.6-2.2,2.3c-1.5-0.9-3.4-1.6-5.2-1c-2.9,0.8-4.7,4.2-3.6,7.1c0.9,3,4.5,4.6,7.3,3.3c1.5-0.5,2.4-1.9,2.9-3.3
	c-1.7,0-3.4,0-5-0.1c0-1,0-2,0-3c2.8,0,5.6,0,8.4,0c0.2,2.5-0.2,5.1-1.8,7C19.4,28.6,15.4,29.4,12.1,28.3z"/>
</svg>
