<svg xmlns="http://www.w3.org/2000/svg" width="40" height="40" viewBox="0 0 40 40"><title>Like the Post</title><g><path d="M20.46,28.56a2,2,0,0,1-1.25-.43c-2.72-2.08-9.39-7.74-9.39-12.27,0-3.47,2.06-5.53,5.53-5.53a6.51,6.51,0,0,1,4.93,2.46A6.06,6.06,0,0,1,25,10.34c3.47,0,5.5,2,5.5,5.5,0,4.53-6,10.22-8.75,12.3a2,2,0,0,1-1.25.43" style="fill:#fff"/><path d="M20.36,29.17A2.19,2.19,0,0,1,19,28.72C16.11,26.5,9,20.47,9,15.63c0-3.7,2.2-5.9,5.9-5.9a7,7,0,0,1,5.26,2.63,6.47,6.47,0,0,1,5-2.63c3.7,0,5.87,2.16,5.87,5.87,0,4.84-6.43,10.9-9.34,13.12a2.19,2.19,0,0,1-1.34.45m-4.9-17.82c-2.9,0-5,1.38-5,4.28,0,4.3,7.31,10.3,9.44,11.92a.74.74,0,0,0,.89,0c2.13-1.63,8.76-7.65,8.76-12,0-2.9-1.41-4.24-4.31-4.24a5,5,0,0,0-4.49,2.78L20,15.67l-.67-1.5a3.92,3.92,0,0,0-3.93-2.81" style="fill:#b22222"/></g></svg>
