<?xml version="1.0" encoding="utf-8"?>
<svg version="1.1" id="Layer_1" xmlns="http://www.w3.org/2000/svg" xmlns:xlink="http://www.w3.org/1999/xlink" x="0px" y="0px"
	 viewBox="0 0 40 40" style="enable-background:new 0 0 40 40;" xml:space="preserve" width="40px" height="40px">
<style type="text/css">
	.st0{fill:#FFFFFF;}
</style>
<path class="st0" d="M25.4,29.1v-6.6c0-1.6-0.6-2.8-2.1-2.8c-1.1,0-1.8,0.8-2.1,1.5c-0.1,0.3-0.1,0.6-0.1,1v6.8h-4.1
	c0,0,0.1-11.1,0-12.3h4.1v1.7c0,0,0,0,0,0h0v0c0.5-0.8,1.5-2,3.7-2c2.7,0,4.7,1.8,4.7,5.5v7H25.4z M12.8,15.1L12.8,15.1
	c-1.4,0-2.3-0.9-2.3-2.1c0-1.2,0.9-2.1,2.3-2.1c1.4,0,2.3,0.9,2.3,2.1C15.1,14.2,14.2,15.1,12.8,15.1z M14.8,29.1h-4.1V16.8h4.1
	V29.1z"/>
</svg>
