<?xml version="1.0" encoding="utf-8"?>
<svg version="1.1" id="Layer_1" xmlns="http://www.w3.org/2000/svg" xmlns:xlink="http://www.w3.org/1999/xlink" x="0px" y="0px"
	 viewBox="0 0 40 40" style="enable-background:new 0 0 40 40;" xml:space="preserve" width="40px" height="40px">
<style type="text/css">
	.st0{fill:#FFFFFF;}
</style>
<path class="st0" d="M20.5,8.5c-6.3,0-9.4,4.5-9.4,8.2c0,2.3,0.9,4.3,2.7,5.1c0.3,0.1,0.6,0,0.7-0.3c0.1-0.2,0.2-0.8,0.3-1.1
	c0.1-0.3,0.1-0.4-0.2-0.7c-0.5-0.6-0.9-1.4-0.9-2.6c0-3.3,2.5-6.3,6.5-6.3c3.5,0,5.5,2.2,5.5,5.1c0,3.8-1.7,7-4.2,7
	c-1.4,0-2.4-1.1-2.1-2.5c0.4-1.7,1.2-3.5,1.2-4.7c0-1.1-0.6-2-1.8-2c-1.4,0-2.5,1.5-2.5,3.4c0,1.2,0.4,2.1,0.4,2.1s-1.4,6.1-1.7,7.2
	c-0.5,2.1-0.1,4.8,0,5c0,0.2,0.2,0.2,0.3,0.1c0.1-0.2,1.8-2.2,2.4-4.3c0.2-0.6,0.9-3.6,0.9-3.6c0.5,0.9,1.8,1.6,3.2,1.6
	c4.2,0,7.1-3.9,7.1-9C28.9,12.2,25.6,8.5,20.5,8.5z"/>
</svg>
