<?xml version="1.0" encoding="utf-8"?>
<svg version="1.1" id="Layer_1" xmlns="http://www.w3.org/2000/svg" xmlns:xlink="http://www.w3.org/1999/xlink" x="0px" y="0px"
	 viewBox="0 0 40 40" style="enable-background:new 0 0 40 40;" xml:space="preserve" width="40px" height="40px">
<style type="text/css">
	.st0{fill:#FFFFFF;}
</style>
<path class="st0" d="M31.8,12.7c-0.9,0.4-1.8,0.6-2.8,0.8c1-0.6,1.8-1.6,2.1-2.7c-0.9,0.6-2,1-3.1,1.2c-0.9-0.9-2.1-1.5-3.5-1.5
	c-2.7,0-4.8,2.2-4.8,4.8c0,0.4,0.1,0.8,0.1,1.1c-4-0.2-7.6-2.1-10-5.1c-0.4,0.7-0.6,1.5-0.6,2.4c0,1.7,0.5,3.2,1.8,4
	c-0.8,0-1-0.2-2.6-0.6c0,0,0,0,0,0.1c0,2.3,2,4.3,4.3,4.7c-0.4,0.1-0.6,0.2-1.1,0.2c-0.3,0-0.5,0-0.8-0.1c0.6,1.9,2.4,3.3,4.6,3.4
	c-1.7,1.3-3.7,2.1-6,2.1c-0.4,0-0.8,0-1.1-0.1c2.1,1.4,4.7,2.2,7.4,2.2c8.9,0,13.8-7.4,13.8-13.8c0-0.2,0-0.4,0-0.6
	C30.3,14.5,31.1,13.7,31.8,12.7z"/>
</svg>
