<?xml version="1.0" encoding="utf-8"?>
<svg version="1.1" id="Layer_1" xmlns="http://www.w3.org/2000/svg" xmlns:xlink="http://www.w3.org/1999/xlink" x="0px" y="0px"
	 viewBox="0 0 40 40" style="enable-background:new 0 0 40 40;" xml:space="preserve" width="40px" height="40px">
<style type="text/css">
	.st0{fill:#FFFFFF;}
</style>
<path class="st0" d="M20.1,32.7C20.1,32.7,20.1,32.7,20.1,32.7L20.1,32.7c-2.1,0-4.2-0.5-6.1-1.6l-6.8,1.8L9,26.3
	c-1.1-1.9-1.7-4.1-1.7-6.4c0-7.1,5.7-12.8,12.8-12.8c3.4,0,6.6,1.3,9,3.8c2.4,2.4,3.7,5.6,3.7,9C32.8,26.9,27.1,32.7,20.1,32.7z
	 M27.6,12.4c-2-2-4.7-3.1-7.5-3.1C14.2,9.3,9.4,14,9.4,19.9c0,2,0.6,4,1.6,5.7l0.3,0.4l-1.1,3.9l4-1.1l0.4,0.2
	c1.6,1,3.5,1.5,5.4,1.5h0c5.9,0,10.6-4.8,10.6-10.6C30.7,17.1,29.6,14.4,27.6,12.4z M24.2,26c-0.6,0.1-1.2,0.1-2-0.1
	c-0.5-0.1-1.1-0.3-1.8-0.7c-3.2-1.4-5.3-4.6-5.5-4.8c-0.2-0.2-1.3-1.7-1.3-3.3c0-1.6,0.8-2.3,1.1-2.7c0.3-0.3,0.6-0.4,0.9-0.4
	c0.2,0,0.4,0,0.6,0c0.2,0,0.5-0.1,0.7,0.5c0.3,0.6,0.9,2.2,1,2.4c0.1,0.2,0.1,0.3,0,0.6c-0.1,0.2-0.2,0.3-0.3,0.5
	c-0.2,0.2-0.3,0.4-0.5,0.6c-0.2,0.2-0.3,0.3-0.1,0.7c0.2,0.3,0.8,1.4,1.8,2.2c1.2,1.1,2.2,1.4,2.6,1.6c0.3,0.2,0.5,0.1,0.7-0.1
	c0.2-0.2,0.8-0.9,1-1.3c0.2-0.3,0.4-0.3,0.7-0.2c0.3,0.1,1.9,0.9,2.2,1c0.3,0.2,0.5,0.2,0.6,0.4c0.1,0.1,0.1,0.8-0.2,1.5
	C26,25.2,24.8,25.9,24.2,26z"/>
</svg>
